<?xml version="1.0" encoding="UTF-8" standalone="no"?>
<!DOCTYPE svg PUBLIC "-//W3C//DTD SVG 1.1//EN"
 "http://www.w3.org/Graphics/SVG/1.1/DTD/svg11.dtd">
<!-- Generated by graphviz version 2.40.1 (20161225.0304)
 -->
<!-- Title: oneDegreeRelationshipsDiagram Pages: 1 -->
<svg width="504pt" height="271pt"
 viewBox="0.00 0.00 504.00 270.70" xmlns="http://www.w3.org/2000/svg" xmlns:xlink="http://www.w3.org/1999/xlink">
<g id="graph0" class="graph" transform="scale(1 1) rotate(0) translate(4 266.7)">
<title>oneDegreeRelationshipsDiagram</title>
<polygon fill="#ffffff" stroke="transparent" points="-4,4 -4,-266.7 500,-266.7 500,4 -4,4"/>
<text text-anchor="middle" x="72.4936" y="-7.3" font-family="Helvetica,sans-Serif" font-size="11.00" fill="#000000">Generated by SchemaSpy</text>
<!-- article -->
<g id="node1" class="node">
<title>article</title>
<g id="a_node1"><a xlink:href="../../tables/article.html" xlink:title="article" target="_top">
<polygon fill="#ffffff" stroke="transparent" points="142,-38.2 142,-238.2 351,-238.2 351,-38.2 142,-38.2"/>
<polygon fill="#f5f5f5" stroke="transparent" points="144.5,-213.2 144.5,-236.2 349.5,-236.2 349.5,-213.2 144.5,-213.2"/>
<polygon fill="none" stroke="#000000" points="144.5,-213.2 144.5,-236.2 349.5,-236.2 349.5,-213.2 144.5,-213.2"/>
<text text-anchor="start" x="149.5" y="-222.3" font-family="Helvetica,sans-Serif" font-weight="bold" font-size="11.00" fill="#000000">article</text>
<text text-anchor="start" x="314.5437" y="-221.3" font-family="Helvetica,sans-Serif" font-size="11.00" fill="#000000">[table]</text>
<polygon fill="none" stroke="#000000" points="144.5,-191.2 144.5,-213.2 238.5,-213.2 238.5,-191.2 144.5,-191.2"/>
<image xlink:href="../../images/primaryKeys.png" width="11px" height="12px" preserveAspectRatio="xMinYMin meet" x="149.5" y="-208.2"/>
<text text-anchor="start" x="164.5" y="-198.3" font-family="Helvetica,sans-Serif" font-size="11.00" fill="#000000">id</text>
<polygon fill="none" stroke="#000000" points="238.5,-191.2 238.5,-213.2 349.5,-213.2 349.5,-191.2 238.5,-191.2"/>
<text text-anchor="start" x="241.5" y="-198.9" font-family="Helvetica,sans-Serif" font-size="11.00" fill="#000000">int[10]</text>
<polygon fill="#ffffff" stroke="transparent" points="144.5,-169.2 144.5,-191.2 238.5,-191.2 238.5,-169.2 144.5,-169.2"/>
<polygon fill="none" stroke="#000000" points="144.5,-169.2 144.5,-191.2 238.5,-191.2 238.5,-169.2 144.5,-169.2"/>
<image xlink:href="../../images/foreignKeys.png" width="11px" height="12px" preserveAspectRatio="xMinYMin meet" x="149.5" y="-186.2"/>
<text text-anchor="start" x="164.5" y="-176.3" font-family="Helvetica,sans-Serif" font-size="11.00" fill="#000000">category_id</text>
<polygon fill="none" stroke="#000000" points="238.5,-169.2 238.5,-191.2 349.5,-191.2 349.5,-169.2 238.5,-169.2"/>
<text text-anchor="start" x="241.5" y="-176.9" font-family="Helvetica,sans-Serif" font-size="11.00" fill="#000000">int[10]</text>
<polygon fill="none" stroke="#000000" points="144.5,-147.2 144.5,-169.2 238.5,-169.2 238.5,-147.2 144.5,-147.2"/>
<text text-anchor="start" x="164.5" y="-154.3" font-family="Helvetica,sans-Serif" font-size="11.00" fill="#000000">title</text>
<polygon fill="none" stroke="#000000" points="238.5,-147.2 238.5,-169.2 349.5,-169.2 349.5,-147.2 238.5,-147.2"/>
<text text-anchor="start" x="241.5" y="-154.9" font-family="Helvetica,sans-Serif" font-size="11.00" fill="#000000">varchar[200]</text>
<polygon fill="none" stroke="#000000" points="144.5,-125.2 144.5,-147.2 238.5,-147.2 238.5,-125.2 144.5,-125.2"/>
<text text-anchor="start" x="164.5" y="-132.3" font-family="Helvetica,sans-Serif" font-size="11.00" fill="#000000">content</text>
<polygon fill="none" stroke="#000000" points="238.5,-125.2 238.5,-147.2 349.5,-147.2 349.5,-125.2 238.5,-125.2"/>
<text text-anchor="start" x="241.1115" y="-132.9" font-family="Helvetica,sans-Serif" font-size="11.00" fill="#000000">longtext[2147483647]</text>
<polygon fill="none" stroke="#000000" points="144.5,-103.2 144.5,-125.2 238.5,-125.2 238.5,-103.2 144.5,-103.2"/>
<text text-anchor="start" x="164.5" y="-110.3" font-family="Helvetica,sans-Serif" font-size="11.00" fill="#000000">created_at</text>
<polygon fill="none" stroke="#000000" points="238.5,-103.2 238.5,-125.2 349.5,-125.2 349.5,-103.2 238.5,-103.2"/>
<text text-anchor="start" x="241.5" y="-110.9" font-family="Helvetica,sans-Serif" font-size="11.00" fill="#000000">datetime[19]</text>
<polygon fill="none" stroke="#000000" points="144.5,-81.2 144.5,-103.2 238.5,-103.2 238.5,-81.2 144.5,-81.2"/>
<text text-anchor="start" x="164.5" y="-88.3" font-family="Helvetica,sans-Serif" font-size="11.00" fill="#000000">slug</text>
<polygon fill="none" stroke="#000000" points="238.5,-81.2 238.5,-103.2 349.5,-103.2 349.5,-81.2 238.5,-81.2"/>
<text text-anchor="start" x="241.5" y="-88.9" font-family="Helvetica,sans-Serif" font-size="11.00" fill="#000000">varchar[255]</text>
<polygon fill="none" stroke="#000000" points="144.5,-59.2 144.5,-81.2 238.5,-81.2 238.5,-59.2 144.5,-59.2"/>
<text text-anchor="start" x="164.5" y="-66.3" font-family="Helvetica,sans-Serif" font-size="11.00" fill="#000000">is_published</text>
<polygon fill="none" stroke="#000000" points="238.5,-59.2 238.5,-81.2 349.5,-81.2 349.5,-59.2 238.5,-59.2"/>
<text text-anchor="start" x="241.5" y="-66.9" font-family="Helvetica,sans-Serif" font-size="11.00" fill="#000000">bit[1]</text>
<polygon fill="#ffffff" stroke="transparent" points="144.5,-40.2 144.5,-59.2 176.5,-59.2 176.5,-40.2 144.5,-40.2"/>
<polygon fill="none" stroke="#000000" points="144.5,-40.2 144.5,-59.2 176.5,-59.2 176.5,-40.2 144.5,-40.2"/>
<text text-anchor="start" x="147.5" y="-46.3" font-family="Helvetica,sans-Serif" font-size="11.00" fill="#000000">&lt; 1</text>
<polygon fill="#ffffff" stroke="transparent" points="176.5,-40.2 176.5,-59.2 238.5,-59.2 238.5,-40.2 176.5,-40.2"/>
<polygon fill="none" stroke="#000000" points="176.5,-40.2 176.5,-59.2 238.5,-59.2 238.5,-40.2 176.5,-40.2"/>
<text text-anchor="start" x="190.8807" y="-46.3" font-family="Helvetica,sans-Serif" font-size="11.00" fill="#000000">102 rows</text>
<polygon fill="#ffffff" stroke="transparent" points="238.5,-40.2 238.5,-59.2 349.5,-59.2 349.5,-40.2 238.5,-40.2"/>
<polygon fill="none" stroke="#000000" points="238.5,-40.2 238.5,-59.2 349.5,-59.2 349.5,-40.2 238.5,-40.2"/>
<text text-anchor="start" x="330.9053" y="-46.3" font-family="Helvetica,sans-Serif" font-size="11.00" fill="#000000">1 &gt;</text>
<polygon fill="none" stroke="#000000" stroke-width="2" points="143,-39.2 143,-237.2 350,-237.2 350,-39.2 143,-39.2"/>
</a>
</g>
</g>
<!-- category -->
<g id="node2" class="node">
<title>category</title>
<g id="a_node2"><a xlink:href="../../tables/category.html" xlink:title="category" target="_top">
<polygon fill="#ffffff" stroke="transparent" points="8,-131.7 8,-214.7 93,-214.7 93,-131.7 8,-131.7"/>
<polygon fill="#f5f5f5" stroke="transparent" points="8.5,-191.2 8.5,-214.2 93.5,-214.2 93.5,-191.2 8.5,-191.2"/>
<polygon fill="none" stroke="#000000" points="8.5,-191.2 8.5,-214.2 93.5,-214.2 93.5,-191.2 8.5,-191.2"/>
<text text-anchor="start" x="13.4108" y="-200.3" font-family="Helvetica,sans-Serif" font-weight="bold" font-size="11.00" fill="#000000">category</text>
<text text-anchor="start" x="59.0219" y="-199.3" font-family="Helvetica,sans-Serif" font-size="11.00" fill="#000000">[table]</text>
<polygon fill="none" stroke="#000000" points="8.5,-169.2 8.5,-191.2 93.5,-191.2 93.5,-169.2 8.5,-169.2"/>
<image xlink:href="../../images/primaryKeys.png" width="11px" height="12px" preserveAspectRatio="xMinYMin meet" x="13.5" y="-186.2"/>
<text text-anchor="start" x="35.5" y="-176.3" font-family="Helvetica,sans-Serif" font-size="11.00" fill="#000000">id</text>
<polygon fill="none" stroke="#000000" points="8.5,-150.2 8.5,-169.2 93.5,-169.2 93.5,-150.2 8.5,-150.2"/>
<text text-anchor="start" x="11.5" y="-156.3" font-family="Helvetica,sans-Serif" font-size="11.00" fill="#000000">...</text>
<polygon fill="#ffffff" stroke="transparent" points="8.5,-131.2 8.5,-150.2 24.5,-150.2 24.5,-131.2 8.5,-131.2"/>
<polygon fill="none" stroke="#000000" points="8.5,-131.2 8.5,-150.2 24.5,-150.2 24.5,-131.2 8.5,-131.2"/>
<text text-anchor="start" x="11.5" y="-137.3" font-family="Helvetica,sans-Serif" font-size="11.00" fill="#000000"> &#160;</text>
<polygon fill="#ffffff" stroke="transparent" points="24.5,-131.2 24.5,-150.2 70.5,-150.2 70.5,-131.2 24.5,-131.2"/>
<polygon fill="none" stroke="#000000" points="24.5,-131.2 24.5,-150.2 70.5,-150.2 70.5,-131.2 24.5,-131.2"/>
<text text-anchor="start" x="28.9956" y="-137.3" font-family="Helvetica,sans-Serif" font-size="11.00" fill="#000000">11 rows</text>
<polygon fill="#ffffff" stroke="transparent" points="70.5,-131.2 70.5,-150.2 93.5,-150.2 93.5,-131.2 70.5,-131.2"/>
<polygon fill="none" stroke="#000000" points="70.5,-131.2 70.5,-150.2 93.5,-150.2 93.5,-131.2 70.5,-131.2"/>
<text text-anchor="start" x="74.9053" y="-137.3" font-family="Helvetica,sans-Serif" font-size="11.00" fill="#000000">1 &gt;</text>
</a>
</g>
</g>
<!-- article&#45;&gt;category -->
<g id="edge1" class="edge">
<title>article:w&#45;&gt;category:e</title>
<path fill="none" stroke="#000000" d="M129.776,-180.2C117.7815,-180.2 110.3229,-180.2 93.5,-180.2"/>
<polygon fill="#000000" stroke="#000000" points="136.5,-180.2001 144.5,-183.8 140.5,-180.2 144.5,-180.2 144.5,-180.2 144.5,-180.2 140.5,-180.2 144.5,-176.6 136.5,-180.2001 136.5,-180.2001"/>
<ellipse fill="none" stroke="#000000" cx="133.3" cy="-180.2001" rx="3.2" ry="3.2"/>
</g>
<!-- comment -->
<g id="node3" class="node">
<title>comment</title>
<g id="a_node3"><a xlink:href="../../tables/comment.html" xlink:title="comment" target="_top">
<polygon fill="#ffffff" stroke="transparent" points="400,-131.7 400,-258.7 488,-258.7 488,-131.7 400,-131.7"/>
<polygon fill="#f5f5f5" stroke="transparent" points="400,-235.2 400,-258.2 488,-258.2 488,-235.2 400,-235.2"/>
<polygon fill="none" stroke="#000000" points="400,-235.2 400,-258.2 488,-258.2 488,-235.2 400,-235.2"/>
<text text-anchor="start" x="404.8873" y="-244.3" font-family="Helvetica,sans-Serif" font-weight="bold" font-size="11.00" fill="#000000">comment</text>
<text text-anchor="start" x="453.5219" y="-243.3" font-family="Helvetica,sans-Serif" font-size="11.00" fill="#000000">[table]</text>
<polygon fill="none" stroke="#000000" points="400,-213.2 400,-235.2 488,-235.2 488,-213.2 400,-213.2"/>
<image xlink:href="../../images/primaryKeys.png" width="11px" height="12px" preserveAspectRatio="xMinYMin meet" x="405" y="-230.2"/>
<text text-anchor="start" x="424" y="-220.3" font-family="Helvetica,sans-Serif" font-size="11.00" fill="#000000">id</text>
<polygon fill="#ffffff" stroke="transparent" points="400,-191.2 400,-213.2 488,-213.2 488,-191.2 400,-191.2"/>
<polygon fill="none" stroke="#000000" points="400,-191.2 400,-213.2 488,-213.2 488,-191.2 400,-191.2"/>
<image xlink:href="../../images/foreignKeys.png" width="11px" height="12px" preserveAspectRatio="xMinYMin meet" x="405" y="-208.2"/>
<text text-anchor="start" x="424" y="-198.3" font-family="Helvetica,sans-Serif" font-size="11.00" fill="#000000">article_id</text>
<polygon fill="#ffffff" stroke="transparent" points="400,-169.2 400,-191.2 488,-191.2 488,-169.2 400,-169.2"/>
<polygon fill="none" stroke="#000000" points="400,-169.2 400,-191.2 488,-191.2 488,-169.2 400,-169.2"/>
<image xlink:href="../../images/foreignKeys.png" width="11px" height="12px" preserveAspectRatio="xMinYMin meet" x="405" y="-186.2"/>
<text text-anchor="start" x="424" y="-176.3" font-family="Helvetica,sans-Serif" font-size="11.00" fill="#000000">user_id</text>
<polygon fill="none" stroke="#000000" points="400,-150.2 400,-169.2 488,-169.2 488,-150.2 400,-150.2"/>
<text text-anchor="start" x="403" y="-156.3" font-family="Helvetica,sans-Serif" font-size="11.00" fill="#000000">...</text>
<polygon fill="#ffffff" stroke="transparent" points="400,-131.2 400,-150.2 423,-150.2 423,-131.2 400,-131.2"/>
<polygon fill="none" stroke="#000000" points="400,-131.2 400,-150.2 423,-150.2 423,-131.2 400,-131.2"/>
<text text-anchor="start" x="403" y="-137.3" font-family="Helvetica,sans-Serif" font-size="11.00" fill="#000000">&lt; 2</text>
<polygon fill="#ffffff" stroke="transparent" points="423,-131.2 423,-150.2 474,-150.2 474,-131.2 423,-131.2"/>
<polygon fill="none" stroke="#000000" points="423,-131.2 423,-150.2 474,-150.2 474,-131.2 423,-131.2"/>
<text text-anchor="start" x="426.3807" y="-137.3" font-family="Helvetica,sans-Serif" font-size="11.00" fill="#000000">100 rows</text>
<polygon fill="#ffffff" stroke="transparent" points="474,-131.2 474,-150.2 488,-150.2 488,-131.2 474,-131.2"/>
<polygon fill="none" stroke="#000000" points="474,-131.2 474,-150.2 488,-150.2 488,-131.2 474,-131.2"/>
<text text-anchor="start" x="478.8862" y="-137.3" font-family="Helvetica,sans-Serif" font-size="11.00" fill="#000000"> &#160;</text>
</a>
</g>
</g>
<!-- comment&#45;&gt;article -->
<g id="edge2" class="edge">
<title>comment:w&#45;&gt;article:e</title>
<path fill="none" stroke="#000000" d="M385.4203,-202.2C373.5435,-202.2 366.158,-202.2 349.5,-202.2"/>
<polygon fill="#000000" stroke="#000000" points="392,-202.2001 400,-205.8 396,-202.2 400,-202.2 400,-202.2 400,-202.2 396,-202.2 400,-198.6 392,-202.2001 392,-202.2001"/>
<ellipse fill="none" stroke="#000000" cx="388.8" cy="-202.2001" rx="3.2" ry="3.2"/>
</g>
</g>
</svg>
