<?xml version="1.0" encoding="UTF-8" standalone="no"?>
<!DOCTYPE svg PUBLIC "-//W3C//DTD SVG 1.1//EN"
 "http://www.w3.org/Graphics/SVG/1.1/DTD/svg11.dtd">
<!-- Generated by graphviz version 2.40.1 (20161225.0304)
 -->
<!-- Title: twoDegreesRelationshipsDiagram Pages: 1 -->
<svg width="504pt" height="333pt"
 viewBox="0.00 0.00 504.00 332.70" xmlns="http://www.w3.org/2000/svg" xmlns:xlink="http://www.w3.org/1999/xlink">
<g id="graph0" class="graph" transform="scale(1 1) rotate(0) translate(4 328.7)">
<title>twoDegreesRelationshipsDiagram</title>
<polygon fill="#ffffff" stroke="transparent" points="-4,4 -4,-328.7 500,-328.7 500,4 -4,4"/>
<text text-anchor="middle" x="72.4936" y="-7.3" font-family="Helvetica,sans-Serif" font-size="11.00" fill="#000000">Generated by SchemaSpy</text>
<!-- article -->
<g id="node1" class="node">
<title>article</title>
<g id="a_node1"><a xlink:href="../../tables/article.html" xlink:title="article" target="_top">
<polygon fill="#ffffff" stroke="transparent" points="142,-120.7 142,-320.7 351,-320.7 351,-120.7 142,-120.7"/>
<polygon fill="#f5f5f5" stroke="transparent" points="144.5,-295.7 144.5,-318.7 349.5,-318.7 349.5,-295.7 144.5,-295.7"/>
<polygon fill="none" stroke="#000000" points="144.5,-295.7 144.5,-318.7 349.5,-318.7 349.5,-295.7 144.5,-295.7"/>
<text text-anchor="start" x="149.5" y="-304.8" font-family="Helvetica,sans-Serif" font-weight="bold" font-size="11.00" fill="#000000">article</text>
<text text-anchor="start" x="314.5437" y="-303.8" font-family="Helvetica,sans-Serif" font-size="11.00" fill="#000000">[table]</text>
<polygon fill="none" stroke="#000000" points="144.5,-273.7 144.5,-295.7 238.5,-295.7 238.5,-273.7 144.5,-273.7"/>
<image xlink:href="../../images/primaryKeys.png" width="11px" height="12px" preserveAspectRatio="xMinYMin meet" x="149.5" y="-290.7"/>
<text text-anchor="start" x="164.5" y="-280.8" font-family="Helvetica,sans-Serif" font-size="11.00" fill="#000000">id</text>
<polygon fill="none" stroke="#000000" points="238.5,-273.7 238.5,-295.7 349.5,-295.7 349.5,-273.7 238.5,-273.7"/>
<text text-anchor="start" x="241.5" y="-281.4" font-family="Helvetica,sans-Serif" font-size="11.00" fill="#000000">int[10]</text>
<polygon fill="#ffffff" stroke="transparent" points="144.5,-251.7 144.5,-273.7 238.5,-273.7 238.5,-251.7 144.5,-251.7"/>
<polygon fill="none" stroke="#000000" points="144.5,-251.7 144.5,-273.7 238.5,-273.7 238.5,-251.7 144.5,-251.7"/>
<image xlink:href="../../images/foreignKeys.png" width="11px" height="12px" preserveAspectRatio="xMinYMin meet" x="149.5" y="-268.7"/>
<text text-anchor="start" x="164.5" y="-258.8" font-family="Helvetica,sans-Serif" font-size="11.00" fill="#000000">category_id</text>
<polygon fill="none" stroke="#000000" points="238.5,-251.7 238.5,-273.7 349.5,-273.7 349.5,-251.7 238.5,-251.7"/>
<text text-anchor="start" x="241.5" y="-259.4" font-family="Helvetica,sans-Serif" font-size="11.00" fill="#000000">int[10]</text>
<polygon fill="none" stroke="#000000" points="144.5,-229.7 144.5,-251.7 238.5,-251.7 238.5,-229.7 144.5,-229.7"/>
<text text-anchor="start" x="164.5" y="-236.8" font-family="Helvetica,sans-Serif" font-size="11.00" fill="#000000">title</text>
<polygon fill="none" stroke="#000000" points="238.5,-229.7 238.5,-251.7 349.5,-251.7 349.5,-229.7 238.5,-229.7"/>
<text text-anchor="start" x="241.5" y="-237.4" font-family="Helvetica,sans-Serif" font-size="11.00" fill="#000000">varchar[200]</text>
<polygon fill="none" stroke="#000000" points="144.5,-207.7 144.5,-229.7 238.5,-229.7 238.5,-207.7 144.5,-207.7"/>
<text text-anchor="start" x="164.5" y="-214.8" font-family="Helvetica,sans-Serif" font-size="11.00" fill="#000000">content</text>
<polygon fill="none" stroke="#000000" points="238.5,-207.7 238.5,-229.7 349.5,-229.7 349.5,-207.7 238.5,-207.7"/>
<text text-anchor="start" x="241.1115" y="-215.4" font-family="Helvetica,sans-Serif" font-size="11.00" fill="#000000">longtext[2147483647]</text>
<polygon fill="none" stroke="#000000" points="144.5,-185.7 144.5,-207.7 238.5,-207.7 238.5,-185.7 144.5,-185.7"/>
<text text-anchor="start" x="164.5" y="-192.8" font-family="Helvetica,sans-Serif" font-size="11.00" fill="#000000">created_at</text>
<polygon fill="none" stroke="#000000" points="238.5,-185.7 238.5,-207.7 349.5,-207.7 349.5,-185.7 238.5,-185.7"/>
<text text-anchor="start" x="241.5" y="-193.4" font-family="Helvetica,sans-Serif" font-size="11.00" fill="#000000">datetime[19]</text>
<polygon fill="none" stroke="#000000" points="144.5,-163.7 144.5,-185.7 238.5,-185.7 238.5,-163.7 144.5,-163.7"/>
<text text-anchor="start" x="164.5" y="-170.8" font-family="Helvetica,sans-Serif" font-size="11.00" fill="#000000">slug</text>
<polygon fill="none" stroke="#000000" points="238.5,-163.7 238.5,-185.7 349.5,-185.7 349.5,-163.7 238.5,-163.7"/>
<text text-anchor="start" x="241.5" y="-171.4" font-family="Helvetica,sans-Serif" font-size="11.00" fill="#000000">varchar[255]</text>
<polygon fill="none" stroke="#000000" points="144.5,-141.7 144.5,-163.7 238.5,-163.7 238.5,-141.7 144.5,-141.7"/>
<text text-anchor="start" x="164.5" y="-148.8" font-family="Helvetica,sans-Serif" font-size="11.00" fill="#000000">is_published</text>
<polygon fill="none" stroke="#000000" points="238.5,-141.7 238.5,-163.7 349.5,-163.7 349.5,-141.7 238.5,-141.7"/>
<text text-anchor="start" x="241.5" y="-149.4" font-family="Helvetica,sans-Serif" font-size="11.00" fill="#000000">bit[1]</text>
<polygon fill="#ffffff" stroke="transparent" points="144.5,-122.7 144.5,-141.7 176.5,-141.7 176.5,-122.7 144.5,-122.7"/>
<polygon fill="none" stroke="#000000" points="144.5,-122.7 144.5,-141.7 176.5,-141.7 176.5,-122.7 144.5,-122.7"/>
<text text-anchor="start" x="147.5" y="-128.8" font-family="Helvetica,sans-Serif" font-size="11.00" fill="#000000">&lt; 1</text>
<polygon fill="#ffffff" stroke="transparent" points="176.5,-122.7 176.5,-141.7 238.5,-141.7 238.5,-122.7 176.5,-122.7"/>
<polygon fill="none" stroke="#000000" points="176.5,-122.7 176.5,-141.7 238.5,-141.7 238.5,-122.7 176.5,-122.7"/>
<text text-anchor="start" x="190.8807" y="-128.8" font-family="Helvetica,sans-Serif" font-size="11.00" fill="#000000">102 rows</text>
<polygon fill="#ffffff" stroke="transparent" points="238.5,-122.7 238.5,-141.7 349.5,-141.7 349.5,-122.7 238.5,-122.7"/>
<polygon fill="none" stroke="#000000" points="238.5,-122.7 238.5,-141.7 349.5,-141.7 349.5,-122.7 238.5,-122.7"/>
<text text-anchor="start" x="330.9053" y="-128.8" font-family="Helvetica,sans-Serif" font-size="11.00" fill="#000000">1 &gt;</text>
<polygon fill="none" stroke="#000000" stroke-width="2" points="143,-121.7 143,-319.7 350,-319.7 350,-121.7 143,-121.7"/>
</a>
</g>
</g>
<!-- category -->
<g id="node2" class="node">
<title>category</title>
<g id="a_node2"><a xlink:href="../../tables/category.html" xlink:title="category" target="_top">
<polygon fill="#ffffff" stroke="transparent" points="8,-214.2 8,-297.2 93,-297.2 93,-214.2 8,-214.2"/>
<polygon fill="#f5f5f5" stroke="transparent" points="8.5,-273.7 8.5,-296.7 93.5,-296.7 93.5,-273.7 8.5,-273.7"/>
<polygon fill="none" stroke="#000000" points="8.5,-273.7 8.5,-296.7 93.5,-296.7 93.5,-273.7 8.5,-273.7"/>
<text text-anchor="start" x="13.4108" y="-282.8" font-family="Helvetica,sans-Serif" font-weight="bold" font-size="11.00" fill="#000000">category</text>
<text text-anchor="start" x="59.0219" y="-281.8" font-family="Helvetica,sans-Serif" font-size="11.00" fill="#000000">[table]</text>
<polygon fill="none" stroke="#000000" points="8.5,-251.7 8.5,-273.7 93.5,-273.7 93.5,-251.7 8.5,-251.7"/>
<image xlink:href="../../images/primaryKeys.png" width="11px" height="12px" preserveAspectRatio="xMinYMin meet" x="13.5" y="-268.7"/>
<text text-anchor="start" x="35.5" y="-258.8" font-family="Helvetica,sans-Serif" font-size="11.00" fill="#000000">id</text>
<polygon fill="none" stroke="#000000" points="8.5,-232.7 8.5,-251.7 93.5,-251.7 93.5,-232.7 8.5,-232.7"/>
<text text-anchor="start" x="11.5" y="-238.8" font-family="Helvetica,sans-Serif" font-size="11.00" fill="#000000">...</text>
<polygon fill="#ffffff" stroke="transparent" points="8.5,-213.7 8.5,-232.7 24.5,-232.7 24.5,-213.7 8.5,-213.7"/>
<polygon fill="none" stroke="#000000" points="8.5,-213.7 8.5,-232.7 24.5,-232.7 24.5,-213.7 8.5,-213.7"/>
<text text-anchor="start" x="11.5" y="-219.8" font-family="Helvetica,sans-Serif" font-size="11.00" fill="#000000"> &#160;</text>
<polygon fill="#ffffff" stroke="transparent" points="24.5,-213.7 24.5,-232.7 70.5,-232.7 70.5,-213.7 24.5,-213.7"/>
<polygon fill="none" stroke="#000000" points="24.5,-213.7 24.5,-232.7 70.5,-232.7 70.5,-213.7 24.5,-213.7"/>
<text text-anchor="start" x="28.9956" y="-219.8" font-family="Helvetica,sans-Serif" font-size="11.00" fill="#000000">11 rows</text>
<polygon fill="#ffffff" stroke="transparent" points="70.5,-213.7 70.5,-232.7 93.5,-232.7 93.5,-213.7 70.5,-213.7"/>
<polygon fill="none" stroke="#000000" points="70.5,-213.7 70.5,-232.7 93.5,-232.7 93.5,-213.7 70.5,-213.7"/>
<text text-anchor="start" x="74.9053" y="-219.8" font-family="Helvetica,sans-Serif" font-size="11.00" fill="#000000">1 &gt;</text>
</a>
</g>
</g>
<!-- article&#45;&gt;category -->
<g id="edge1" class="edge">
<title>article:w&#45;&gt;category:e</title>
<path fill="none" stroke="#000000" d="M129.776,-262.7C117.7815,-262.7 110.3229,-262.7 93.5,-262.7"/>
<polygon fill="#000000" stroke="#000000" points="136.5,-262.7001 144.5,-266.3 140.5,-262.7 144.5,-262.7 144.5,-262.7 144.5,-262.7 140.5,-262.7 144.5,-259.1 136.5,-262.7001 136.5,-262.7001"/>
<ellipse fill="none" stroke="#000000" cx="133.3" cy="-262.7001" rx="3.2" ry="3.2"/>
</g>
<!-- comment -->
<g id="node3" class="node">
<title>comment</title>
<g id="a_node3"><a xlink:href="../../tables/comment.html" xlink:title="comment" target="_top">
<polygon fill="#ffffff" stroke="transparent" points="400,-115.2 400,-242.2 488,-242.2 488,-115.2 400,-115.2"/>
<polygon fill="#f5f5f5" stroke="transparent" points="400,-218.7 400,-241.7 488,-241.7 488,-218.7 400,-218.7"/>
<polygon fill="none" stroke="#000000" points="400,-218.7 400,-241.7 488,-241.7 488,-218.7 400,-218.7"/>
<text text-anchor="start" x="404.8873" y="-227.8" font-family="Helvetica,sans-Serif" font-weight="bold" font-size="11.00" fill="#000000">comment</text>
<text text-anchor="start" x="453.5219" y="-226.8" font-family="Helvetica,sans-Serif" font-size="11.00" fill="#000000">[table]</text>
<polygon fill="none" stroke="#000000" points="400,-196.7 400,-218.7 488,-218.7 488,-196.7 400,-196.7"/>
<image xlink:href="../../images/primaryKeys.png" width="11px" height="12px" preserveAspectRatio="xMinYMin meet" x="405" y="-213.7"/>
<text text-anchor="start" x="424" y="-203.8" font-family="Helvetica,sans-Serif" font-size="11.00" fill="#000000">id</text>
<polygon fill="#ffffff" stroke="transparent" points="400,-174.7 400,-196.7 488,-196.7 488,-174.7 400,-174.7"/>
<polygon fill="none" stroke="#000000" points="400,-174.7 400,-196.7 488,-196.7 488,-174.7 400,-174.7"/>
<image xlink:href="../../images/foreignKeys.png" width="11px" height="12px" preserveAspectRatio="xMinYMin meet" x="405" y="-191.7"/>
<text text-anchor="start" x="424" y="-181.8" font-family="Helvetica,sans-Serif" font-size="11.00" fill="#000000">article_id</text>
<polygon fill="#ffffff" stroke="transparent" points="400,-152.7 400,-174.7 488,-174.7 488,-152.7 400,-152.7"/>
<polygon fill="none" stroke="#000000" points="400,-152.7 400,-174.7 488,-174.7 488,-152.7 400,-152.7"/>
<image xlink:href="../../images/foreignKeys.png" width="11px" height="12px" preserveAspectRatio="xMinYMin meet" x="405" y="-169.7"/>
<text text-anchor="start" x="424" y="-159.8" font-family="Helvetica,sans-Serif" font-size="11.00" fill="#000000">user_id</text>
<polygon fill="none" stroke="#000000" points="400,-133.7 400,-152.7 488,-152.7 488,-133.7 400,-133.7"/>
<text text-anchor="start" x="403" y="-139.8" font-family="Helvetica,sans-Serif" font-size="11.00" fill="#000000">...</text>
<polygon fill="#ffffff" stroke="transparent" points="400,-114.7 400,-133.7 423,-133.7 423,-114.7 400,-114.7"/>
<polygon fill="none" stroke="#000000" points="400,-114.7 400,-133.7 423,-133.7 423,-114.7 400,-114.7"/>
<text text-anchor="start" x="403" y="-120.8" font-family="Helvetica,sans-Serif" font-size="11.00" fill="#000000">&lt; 2</text>
<polygon fill="#ffffff" stroke="transparent" points="423,-114.7 423,-133.7 474,-133.7 474,-114.7 423,-114.7"/>
<polygon fill="none" stroke="#000000" points="423,-114.7 423,-133.7 474,-133.7 474,-114.7 423,-114.7"/>
<text text-anchor="start" x="426.3807" y="-120.8" font-family="Helvetica,sans-Serif" font-size="11.00" fill="#000000">100 rows</text>
<polygon fill="#ffffff" stroke="transparent" points="474,-114.7 474,-133.7 488,-133.7 488,-114.7 474,-114.7"/>
<polygon fill="none" stroke="#000000" points="474,-114.7 474,-133.7 488,-133.7 488,-114.7 474,-114.7"/>
<text text-anchor="start" x="478.8862" y="-120.8" font-family="Helvetica,sans-Serif" font-size="11.00" fill="#000000"> &#160;</text>
</a>
</g>
</g>
<!-- comment&#45;&gt;article -->
<g id="edge2" class="edge">
<title>comment:w&#45;&gt;article:e</title>
<path fill="none" stroke="#000000" d="M386.0064,-189.7035C360.8685,-208.2249 392.9126,-284.7 349.5,-284.7"/>
<polygon fill="#000000" stroke="#000000" points="392.3086,-187.9005 400.9902,-189.1611 396.1543,-186.8003 400,-185.7 400,-185.7 400,-185.7 396.1543,-186.8003 399.0098,-182.2389 392.3086,-187.9005 392.3086,-187.9005"/>
<ellipse fill="none" stroke="#000000" cx="389.232" cy="-188.7807" rx="3.2" ry="3.2"/>
</g>
<!-- user -->
<g id="node4" class="node">
<title>user</title>
<g id="a_node4"><a xlink:href="../../tables/user.html" xlink:title="user" target="_top">
<polygon fill="#ffffff" stroke="transparent" points="208,-38.2 208,-99.2 285,-99.2 285,-38.2 208,-38.2"/>
<polygon fill="#f5f5f5" stroke="transparent" points="208.5,-75.7 208.5,-98.7 285.5,-98.7 285.5,-75.7 208.5,-75.7"/>
<polygon fill="none" stroke="#000000" points="208.5,-75.7 208.5,-98.7 285.5,-98.7 285.5,-75.7 208.5,-75.7"/>
<text text-anchor="start" x="213.5" y="-84.8" font-family="Helvetica,sans-Serif" font-weight="bold" font-size="11.00" fill="#000000">user</text>
<text text-anchor="start" x="250.5437" y="-83.8" font-family="Helvetica,sans-Serif" font-size="11.00" fill="#000000">[table]</text>
<polygon fill="none" stroke="#000000" points="208.5,-56.7 208.5,-75.7 285.5,-75.7 285.5,-56.7 208.5,-56.7"/>
<text text-anchor="start" x="211.5" y="-62.8" font-family="Helvetica,sans-Serif" font-size="11.00" fill="#000000">...</text>
<polygon fill="#ffffff" stroke="transparent" points="208.5,-37.7 208.5,-56.7 220.5,-56.7 220.5,-37.7 208.5,-37.7"/>
<polygon fill="none" stroke="#000000" points="208.5,-37.7 208.5,-56.7 220.5,-56.7 220.5,-37.7 208.5,-37.7"/>
<text text-anchor="start" x="211.4431" y="-43.8" font-family="Helvetica,sans-Serif" font-size="11.00" fill="#000000"> &#160;</text>
<polygon fill="#ffffff" stroke="transparent" points="220.5,-37.7 220.5,-56.7 264.5,-56.7 264.5,-37.7 220.5,-37.7"/>
<polygon fill="none" stroke="#000000" points="220.5,-37.7 220.5,-56.7 264.5,-56.7 264.5,-37.7 220.5,-37.7"/>
<text text-anchor="start" x="223.2478" y="-43.8" font-family="Helvetica,sans-Serif" font-size="11.00" fill="#000000">13 rows</text>
<polygon fill="#ffffff" stroke="transparent" points="264.5,-37.7 264.5,-56.7 285.5,-56.7 285.5,-37.7 264.5,-37.7"/>
<polygon fill="none" stroke="#000000" points="264.5,-37.7 264.5,-56.7 285.5,-56.7 285.5,-37.7 264.5,-37.7"/>
<text text-anchor="start" x="267.2027" y="-43.8" font-family="Helvetica,sans-Serif" font-size="11.00" fill="#000000">1 &gt;</text>
</a>
</g>
</g>
<!-- comment&#45;&gt;user -->
<g id="edge3" class="edge">
<title>comment:w&#45;&gt;user:e</title>
<path fill="none" stroke="#000000" d="M385.8986,-159.7141C373.3668,-150.3164 376.4973,-126.3861 359,-110.7 330.48,-85.1321 323.8029,-65.7 285.5,-65.7"/>
<polygon fill="#000000" stroke="#000000" points="392.3016,-161.5239 399.0208,-167.1643 396.1508,-162.612 400,-163.7 400,-163.7 400,-163.7 396.1508,-162.612 400.9792,-160.2357 392.3016,-161.5239 392.3016,-161.5239"/>
<ellipse fill="none" stroke="#000000" cx="389.2223" cy="-160.6535" rx="3.2" ry="3.2"/>
</g>
</g>
</svg>
