<?xml version="1.0" encoding="UTF-8" standalone="no"?>
<!DOCTYPE svg PUBLIC "-//W3C//DTD SVG 1.1//EN"
 "http://www.w3.org/Graphics/SVG/1.1/DTD/svg11.dtd">
<!-- Generated by graphviz version 2.40.1 (20161225.0304)
 -->
<!-- Title: oneDegreeRelationshipsDiagram Pages: 1 -->
<svg width="309pt" height="183pt"
 viewBox="0.00 0.00 309.00 182.70" xmlns="http://www.w3.org/2000/svg" xmlns:xlink="http://www.w3.org/1999/xlink">
<g id="graph0" class="graph" transform="scale(1 1) rotate(0) translate(4 178.7)">
<title>oneDegreeRelationshipsDiagram</title>
<polygon fill="#ffffff" stroke="transparent" points="-4,4 -4,-178.7 305,-178.7 305,4 -4,4"/>
<text text-anchor="middle" x="72.4936" y="-7.3" font-family="Helvetica,sans-Serif" font-size="11.00" fill="#000000">Generated by SchemaSpy</text>
<!-- article -->
<g id="node1" class="node">
<title>article</title>
<g id="a_node1"><a xlink:href="../../tables/article.html" xlink:title="article" target="_top">
<polygon fill="#ffffff" stroke="transparent" points="199,-65.7 199,-170.7 293,-170.7 293,-65.7 199,-65.7"/>
<polygon fill="#f5f5f5" stroke="transparent" points="199,-147.2 199,-170.2 293,-170.2 293,-147.2 199,-147.2"/>
<polygon fill="none" stroke="#000000" points="199,-147.2 199,-170.2 293,-170.2 293,-147.2 199,-147.2"/>
<text text-anchor="start" x="204" y="-156.3" font-family="Helvetica,sans-Serif" font-weight="bold" font-size="11.00" fill="#000000">article</text>
<text text-anchor="start" x="258.0437" y="-155.3" font-family="Helvetica,sans-Serif" font-size="11.00" fill="#000000">[table]</text>
<polygon fill="none" stroke="#000000" points="199,-125.2 199,-147.2 293,-147.2 293,-125.2 199,-125.2"/>
<image xlink:href="../../images/primaryKeys.png" width="11px" height="12px" preserveAspectRatio="xMinYMin meet" x="204" y="-142.2"/>
<text text-anchor="start" x="219" y="-132.3" font-family="Helvetica,sans-Serif" font-size="11.00" fill="#000000">id</text>
<polygon fill="#ffffff" stroke="transparent" points="199,-103.2 199,-125.2 293,-125.2 293,-103.2 199,-103.2"/>
<polygon fill="none" stroke="#000000" points="199,-103.2 199,-125.2 293,-125.2 293,-103.2 199,-103.2"/>
<image xlink:href="../../images/foreignKeys.png" width="11px" height="12px" preserveAspectRatio="xMinYMin meet" x="204" y="-120.2"/>
<text text-anchor="start" x="219" y="-110.3" font-family="Helvetica,sans-Serif" font-size="11.00" fill="#000000">category_id</text>
<polygon fill="none" stroke="#000000" points="199,-84.2 199,-103.2 293,-103.2 293,-84.2 199,-84.2"/>
<text text-anchor="start" x="202" y="-90.3" font-family="Helvetica,sans-Serif" font-size="11.00" fill="#000000">...</text>
<polygon fill="#ffffff" stroke="transparent" points="199,-65.2 199,-84.2 221,-84.2 221,-65.2 199,-65.2"/>
<polygon fill="none" stroke="#000000" points="199,-65.2 199,-84.2 221,-84.2 221,-65.2 199,-65.2"/>
<text text-anchor="start" x="202" y="-71.3" font-family="Helvetica,sans-Serif" font-size="11.00" fill="#000000">&lt; 1</text>
<polygon fill="#ffffff" stroke="transparent" points="221,-65.2 221,-84.2 271,-84.2 271,-65.2 221,-65.2"/>
<polygon fill="none" stroke="#000000" points="221,-65.2 221,-84.2 271,-84.2 271,-65.2 221,-65.2"/>
<text text-anchor="start" x="223.6904" y="-71.3" font-family="Helvetica,sans-Serif" font-size="11.00" fill="#000000">102 rows</text>
<polygon fill="#ffffff" stroke="transparent" points="271,-65.2 271,-84.2 293,-84.2 293,-65.2 271,-65.2"/>
<polygon fill="none" stroke="#000000" points="271,-65.2 271,-84.2 293,-84.2 293,-65.2 271,-65.2"/>
<text text-anchor="start" x="274.4053" y="-71.3" font-family="Helvetica,sans-Serif" font-size="11.00" fill="#000000">1 &gt;</text>
</a>
</g>
</g>
<!-- category -->
<g id="node2" class="node">
<title>category</title>
<g id="a_node2"><a xlink:href="../../tables/category.html" xlink:title="category" target="_top">
<polygon fill="#ffffff" stroke="transparent" points="8,-38.2 8,-150.2 150,-150.2 150,-38.2 8,-38.2"/>
<polygon fill="#f5f5f5" stroke="transparent" points="10,-125.2 10,-148.2 148,-148.2 148,-125.2 10,-125.2"/>
<polygon fill="none" stroke="#000000" points="10,-125.2 10,-148.2 148,-148.2 148,-125.2 10,-125.2"/>
<text text-anchor="start" x="15" y="-134.3" font-family="Helvetica,sans-Serif" font-weight="bold" font-size="11.00" fill="#000000">category</text>
<text text-anchor="start" x="113.0437" y="-133.3" font-family="Helvetica,sans-Serif" font-size="11.00" fill="#000000">[table]</text>
<polygon fill="none" stroke="#000000" points="10,-103.2 10,-125.2 81,-125.2 81,-103.2 10,-103.2"/>
<image xlink:href="../../images/primaryKeys.png" width="11px" height="12px" preserveAspectRatio="xMinYMin meet" x="15" y="-120.2"/>
<text text-anchor="start" x="30" y="-110.3" font-family="Helvetica,sans-Serif" font-size="11.00" fill="#000000">id</text>
<polygon fill="none" stroke="#000000" points="81,-103.2 81,-125.2 148,-125.2 148,-103.2 81,-103.2"/>
<text text-anchor="start" x="84" y="-110.9" font-family="Helvetica,sans-Serif" font-size="11.00" fill="#000000">int[10]</text>
<polygon fill="none" stroke="#000000" points="10,-81.2 10,-103.2 81,-103.2 81,-81.2 10,-81.2"/>
<text text-anchor="start" x="30" y="-88.3" font-family="Helvetica,sans-Serif" font-size="11.00" fill="#000000">title</text>
<polygon fill="none" stroke="#000000" points="81,-81.2 81,-103.2 148,-103.2 148,-81.2 81,-81.2"/>
<text text-anchor="start" x="83.9365" y="-88.9" font-family="Helvetica,sans-Serif" font-size="11.00" fill="#000000">varchar[255]</text>
<polygon fill="none" stroke="#000000" points="10,-59.2 10,-81.2 81,-81.2 81,-59.2 10,-59.2"/>
<text text-anchor="start" x="30" y="-66.3" font-family="Helvetica,sans-Serif" font-size="11.00" fill="#000000">slug</text>
<polygon fill="none" stroke="#000000" points="81,-59.2 81,-81.2 148,-81.2 148,-59.2 81,-59.2"/>
<text text-anchor="start" x="83.9365" y="-66.9" font-family="Helvetica,sans-Serif" font-size="11.00" fill="#000000">varchar[255]</text>
<polygon fill="#ffffff" stroke="transparent" points="10,-40.2 10,-59.2 34,-59.2 34,-40.2 10,-40.2"/>
<polygon fill="none" stroke="#000000" points="10,-40.2 10,-59.2 34,-59.2 34,-40.2 10,-40.2"/>
<text text-anchor="start" x="13" y="-46.3" font-family="Helvetica,sans-Serif" font-size="11.00" fill="#000000">&lt; 0</text>
<polygon fill="#ffffff" stroke="transparent" points="34,-40.2 34,-59.2 81,-59.2 81,-40.2 34,-40.2"/>
<polygon fill="none" stroke="#000000" points="34,-40.2 34,-59.2 81,-59.2 81,-40.2 34,-40.2"/>
<text text-anchor="start" x="39.4956" y="-46.3" font-family="Helvetica,sans-Serif" font-size="11.00" fill="#000000">11 rows</text>
<polygon fill="#ffffff" stroke="transparent" points="81,-40.2 81,-59.2 148,-59.2 148,-40.2 81,-40.2"/>
<polygon fill="none" stroke="#000000" points="81,-40.2 81,-59.2 148,-59.2 148,-40.2 81,-40.2"/>
<text text-anchor="start" x="129.4053" y="-46.3" font-family="Helvetica,sans-Serif" font-size="11.00" fill="#000000">1 &gt;</text>
<polygon fill="none" stroke="#000000" stroke-width="2" points="9,-39.2 9,-149.2 149,-149.2 149,-39.2 9,-39.2"/>
</a>
</g>
</g>
<!-- article&#45;&gt;category -->
<g id="edge1" class="edge">
<title>article:w&#45;&gt;category:e</title>
<path fill="none" stroke="#000000" d="M184.276,-114.2C172.2815,-114.2 164.8229,-114.2 148,-114.2"/>
<polygon fill="#000000" stroke="#000000" points="191,-114.2001 199,-117.8 195,-114.2 199,-114.2 199,-114.2 199,-114.2 195,-114.2 199,-110.6 191,-114.2001 191,-114.2001"/>
<ellipse fill="none" stroke="#000000" cx="187.8" cy="-114.2001" rx="3.2" ry="3.2"/>
</g>
</g>
</svg>
