<?xml version="1.0" encoding="UTF-8" standalone="no"?>
<!DOCTYPE svg PUBLIC "-//W3C//DTD SVG 1.1//EN"
 "http://www.w3.org/Graphics/SVG/1.1/DTD/svg11.dtd">
<!-- Generated by graphviz version 2.40.1 (20161225.0304)
 -->
<!-- Title: oneDegreeRelationshipsDiagram Pages: 1 -->
<svg width="319pt" height="259pt"
 viewBox="0.00 0.00 319.00 259.20" xmlns="http://www.w3.org/2000/svg" xmlns:xlink="http://www.w3.org/1999/xlink">
<g id="graph0" class="graph" transform="scale(1 1) rotate(0) translate(4 255.2)">
<title>oneDegreeRelationshipsDiagram</title>
<polygon fill="#ffffff" stroke="transparent" points="-4,4 -4,-255.2 315,-255.2 315,4 -4,4"/>
<text text-anchor="middle" x="72.4936" y="-7.3" font-family="Helvetica,sans-Serif" font-size="11.00" fill="#000000">Generated by SchemaSpy</text>
<!-- comment -->
<g id="node1" class="node">
<title>comment</title>
<g id="a_node1"><a xlink:href="../../tables/comment.html" xlink:title="comment" target="_top">
<polygon fill="#ffffff" stroke="transparent" points="151,-62.7 151,-218.7 303,-218.7 303,-62.7 151,-62.7"/>
<polygon fill="#f5f5f5" stroke="transparent" points="153,-193.7 153,-216.7 301,-216.7 301,-193.7 153,-193.7"/>
<polygon fill="none" stroke="#000000" points="153,-193.7 153,-216.7 301,-216.7 301,-193.7 153,-193.7"/>
<text text-anchor="start" x="158" y="-202.8" font-family="Helvetica,sans-Serif" font-weight="bold" font-size="11.00" fill="#000000">comment</text>
<text text-anchor="start" x="266.0437" y="-201.8" font-family="Helvetica,sans-Serif" font-size="11.00" fill="#000000">[table]</text>
<polygon fill="none" stroke="#000000" points="153,-171.7 153,-193.7 234,-193.7 234,-171.7 153,-171.7"/>
<image xlink:href="../../images/primaryKeys.png" width="11px" height="12px" preserveAspectRatio="xMinYMin meet" x="158" y="-188.7"/>
<text text-anchor="start" x="173" y="-178.8" font-family="Helvetica,sans-Serif" font-size="11.00" fill="#000000">id</text>
<polygon fill="none" stroke="#000000" points="234,-171.7 234,-193.7 301,-193.7 301,-171.7 234,-171.7"/>
<text text-anchor="start" x="237" y="-179.4" font-family="Helvetica,sans-Serif" font-size="11.00" fill="#000000">int[10]</text>
<polygon fill="#ffffff" stroke="transparent" points="153,-149.7 153,-171.7 234,-171.7 234,-149.7 153,-149.7"/>
<polygon fill="none" stroke="#000000" points="153,-149.7 153,-171.7 234,-171.7 234,-149.7 153,-149.7"/>
<image xlink:href="../../images/foreignKeys.png" width="11px" height="12px" preserveAspectRatio="xMinYMin meet" x="158" y="-166.7"/>
<text text-anchor="start" x="173" y="-156.8" font-family="Helvetica,sans-Serif" font-size="11.00" fill="#000000">article_id</text>
<polygon fill="none" stroke="#000000" points="234,-149.7 234,-171.7 301,-171.7 301,-149.7 234,-149.7"/>
<text text-anchor="start" x="237" y="-157.4" font-family="Helvetica,sans-Serif" font-size="11.00" fill="#000000">int[10]</text>
<polygon fill="#ffffff" stroke="transparent" points="153,-127.7 153,-149.7 234,-149.7 234,-127.7 153,-127.7"/>
<polygon fill="none" stroke="#000000" points="153,-127.7 153,-149.7 234,-149.7 234,-127.7 153,-127.7"/>
<image xlink:href="../../images/foreignKeys.png" width="11px" height="12px" preserveAspectRatio="xMinYMin meet" x="158" y="-144.7"/>
<text text-anchor="start" x="173" y="-134.8" font-family="Helvetica,sans-Serif" font-size="11.00" fill="#000000">user_id</text>
<polygon fill="none" stroke="#000000" points="234,-127.7 234,-149.7 301,-149.7 301,-127.7 234,-127.7"/>
<text text-anchor="start" x="237" y="-135.4" font-family="Helvetica,sans-Serif" font-size="11.00" fill="#000000">int[10]</text>
<polygon fill="none" stroke="#000000" points="153,-105.7 153,-127.7 234,-127.7 234,-105.7 153,-105.7"/>
<text text-anchor="start" x="173" y="-112.8" font-family="Helvetica,sans-Serif" font-size="11.00" fill="#000000">content</text>
<polygon fill="none" stroke="#000000" points="234,-105.7 234,-127.7 301,-127.7 301,-105.7 234,-105.7"/>
<text text-anchor="start" x="236.9365" y="-113.4" font-family="Helvetica,sans-Serif" font-size="11.00" fill="#000000">varchar[255]</text>
<polygon fill="none" stroke="#000000" points="153,-83.7 153,-105.7 234,-105.7 234,-83.7 153,-83.7"/>
<text text-anchor="start" x="173" y="-90.8" font-family="Helvetica,sans-Serif" font-size="11.00" fill="#000000">created_at</text>
<polygon fill="none" stroke="#000000" points="234,-83.7 234,-105.7 301,-105.7 301,-83.7 234,-83.7"/>
<text text-anchor="start" x="237" y="-91.4" font-family="Helvetica,sans-Serif" font-size="11.00" fill="#000000">datetime[19]</text>
<polygon fill="#ffffff" stroke="transparent" points="153,-64.7 153,-83.7 179,-83.7 179,-64.7 153,-64.7"/>
<polygon fill="none" stroke="#000000" points="153,-64.7 153,-83.7 179,-83.7 179,-64.7 153,-64.7"/>
<text text-anchor="start" x="156" y="-70.8" font-family="Helvetica,sans-Serif" font-size="11.00" fill="#000000">&lt; 2</text>
<polygon fill="#ffffff" stroke="transparent" points="179,-64.7 179,-83.7 234,-83.7 234,-64.7 179,-64.7"/>
<polygon fill="none" stroke="#000000" points="179,-64.7 179,-83.7 234,-83.7 234,-64.7 179,-64.7"/>
<text text-anchor="start" x="186.3807" y="-70.8" font-family="Helvetica,sans-Serif" font-size="11.00" fill="#000000">100 rows</text>
<polygon fill="#ffffff" stroke="transparent" points="234,-64.7 234,-83.7 301,-83.7 301,-64.7 234,-64.7"/>
<polygon fill="none" stroke="#000000" points="234,-64.7 234,-83.7 301,-83.7 301,-64.7 234,-64.7"/>
<text text-anchor="start" x="282.4053" y="-70.8" font-family="Helvetica,sans-Serif" font-size="11.00" fill="#000000">0 &gt;</text>
<polygon fill="none" stroke="#000000" stroke-width="2" points="152,-63.7 152,-217.7 302,-217.7 302,-63.7 152,-63.7"/>
</a>
</g>
</g>
<!-- article -->
<g id="node2" class="node">
<title>article</title>
<g id="a_node2"><a xlink:href="../../tables/article.html" xlink:title="article" target="_top">
<polygon fill="#ffffff" stroke="transparent" points="8,-142.2 8,-247.2 102,-247.2 102,-142.2 8,-142.2"/>
<polygon fill="#f5f5f5" stroke="transparent" points="8,-223.7 8,-246.7 102,-246.7 102,-223.7 8,-223.7"/>
<polygon fill="none" stroke="#000000" points="8,-223.7 8,-246.7 102,-246.7 102,-223.7 8,-223.7"/>
<text text-anchor="start" x="13" y="-232.8" font-family="Helvetica,sans-Serif" font-weight="bold" font-size="11.00" fill="#000000">article</text>
<text text-anchor="start" x="67.0437" y="-231.8" font-family="Helvetica,sans-Serif" font-size="11.00" fill="#000000">[table]</text>
<polygon fill="none" stroke="#000000" points="8,-201.7 8,-223.7 102,-223.7 102,-201.7 8,-201.7"/>
<image xlink:href="../../images/primaryKeys.png" width="11px" height="12px" preserveAspectRatio="xMinYMin meet" x="13" y="-218.7"/>
<text text-anchor="start" x="28" y="-208.8" font-family="Helvetica,sans-Serif" font-size="11.00" fill="#000000">id</text>
<polygon fill="#ffffff" stroke="transparent" points="8,-179.7 8,-201.7 102,-201.7 102,-179.7 8,-179.7"/>
<polygon fill="none" stroke="#000000" points="8,-179.7 8,-201.7 102,-201.7 102,-179.7 8,-179.7"/>
<image xlink:href="../../images/foreignKeys.png" width="11px" height="12px" preserveAspectRatio="xMinYMin meet" x="13" y="-196.7"/>
<text text-anchor="start" x="28" y="-186.8" font-family="Helvetica,sans-Serif" font-size="11.00" fill="#000000">category_id</text>
<polygon fill="none" stroke="#000000" points="8,-160.7 8,-179.7 102,-179.7 102,-160.7 8,-160.7"/>
<text text-anchor="start" x="11" y="-166.8" font-family="Helvetica,sans-Serif" font-size="11.00" fill="#000000">...</text>
<polygon fill="#ffffff" stroke="transparent" points="8,-141.7 8,-160.7 30,-160.7 30,-141.7 8,-141.7"/>
<polygon fill="none" stroke="#000000" points="8,-141.7 8,-160.7 30,-160.7 30,-141.7 8,-141.7"/>
<text text-anchor="start" x="11" y="-147.8" font-family="Helvetica,sans-Serif" font-size="11.00" fill="#000000">&lt; 1</text>
<polygon fill="#ffffff" stroke="transparent" points="30,-141.7 30,-160.7 80,-160.7 80,-141.7 30,-141.7"/>
<polygon fill="none" stroke="#000000" points="30,-141.7 30,-160.7 80,-160.7 80,-141.7 30,-141.7"/>
<text text-anchor="start" x="32.6903" y="-147.8" font-family="Helvetica,sans-Serif" font-size="11.00" fill="#000000">102 rows</text>
<polygon fill="#ffffff" stroke="transparent" points="80,-141.7 80,-160.7 102,-160.7 102,-141.7 80,-141.7"/>
<polygon fill="none" stroke="#000000" points="80,-141.7 80,-160.7 102,-160.7 102,-141.7 80,-141.7"/>
<text text-anchor="start" x="83.4053" y="-147.8" font-family="Helvetica,sans-Serif" font-size="11.00" fill="#000000">1 &gt;</text>
</a>
</g>
</g>
<!-- comment&#45;&gt;article -->
<g id="edge1" class="edge">
<title>comment:w&#45;&gt;article:e</title>
<path fill="none" stroke="#000000" d="M139.0468,-165.4988C124.161,-178.3719 128.3017,-212.7 102,-212.7"/>
<polygon fill="#000000" stroke="#000000" points="145.4349,-163.3018 154.1708,-164.1043 149.2175,-162.0009 153,-160.7 153,-160.7 153,-160.7 149.2175,-162.0009 151.8292,-157.2957 145.4349,-163.3018 145.4349,-163.3018"/>
<ellipse fill="none" stroke="#000000" cx="142.4089" cy="-164.3426" rx="3.2" ry="3.2"/>
</g>
<!-- user -->
<g id="node3" class="node">
<title>user</title>
<g id="a_node3"><a xlink:href="../../tables/user.html" xlink:title="user" target="_top">
<polygon fill="#ffffff" stroke="transparent" points="16.5,-38.2 16.5,-121.2 93.5,-121.2 93.5,-38.2 16.5,-38.2"/>
<polygon fill="#f5f5f5" stroke="transparent" points="17,-97.7 17,-120.7 94,-120.7 94,-97.7 17,-97.7"/>
<polygon fill="none" stroke="#000000" points="17,-97.7 17,-120.7 94,-120.7 94,-97.7 17,-97.7"/>
<text text-anchor="start" x="22" y="-106.8" font-family="Helvetica,sans-Serif" font-weight="bold" font-size="11.00" fill="#000000">user</text>
<text text-anchor="start" x="59.0437" y="-105.8" font-family="Helvetica,sans-Serif" font-size="11.00" fill="#000000">[table]</text>
<polygon fill="none" stroke="#000000" points="17,-75.7 17,-97.7 94,-97.7 94,-75.7 17,-75.7"/>
<image xlink:href="../../images/primaryKeys.png" width="11px" height="12px" preserveAspectRatio="xMinYMin meet" x="22" y="-92.7"/>
<text text-anchor="start" x="37" y="-82.8" font-family="Helvetica,sans-Serif" font-size="11.00" fill="#000000">id</text>
<polygon fill="none" stroke="#000000" points="17,-56.7 17,-75.7 94,-75.7 94,-56.7 17,-56.7"/>
<text text-anchor="start" x="20" y="-62.8" font-family="Helvetica,sans-Serif" font-size="11.00" fill="#000000">...</text>
<polygon fill="#ffffff" stroke="transparent" points="17,-37.7 17,-56.7 29,-56.7 29,-37.7 17,-37.7"/>
<polygon fill="none" stroke="#000000" points="17,-37.7 17,-56.7 29,-56.7 29,-37.7 17,-37.7"/>
<text text-anchor="start" x="19.9431" y="-43.8" font-family="Helvetica,sans-Serif" font-size="11.00" fill="#000000"> &#160;</text>
<polygon fill="#ffffff" stroke="transparent" points="29,-37.7 29,-56.7 73,-56.7 73,-37.7 29,-37.7"/>
<polygon fill="none" stroke="#000000" points="29,-37.7 29,-56.7 73,-56.7 73,-37.7 29,-37.7"/>
<text text-anchor="start" x="31.7478" y="-43.8" font-family="Helvetica,sans-Serif" font-size="11.00" fill="#000000">13 rows</text>
<polygon fill="#ffffff" stroke="transparent" points="73,-37.7 73,-56.7 94,-56.7 94,-37.7 73,-37.7"/>
<polygon fill="none" stroke="#000000" points="73,-37.7 73,-56.7 94,-56.7 94,-37.7 73,-37.7"/>
<text text-anchor="start" x="75.7027" y="-43.8" font-family="Helvetica,sans-Serif" font-size="11.00" fill="#000000">1 &gt;</text>
</a>
</g>
</g>
<!-- comment&#45;&gt;user -->
<g id="edge2" class="edge">
<title>comment:w&#45;&gt;user:e</title>
<path fill="none" stroke="#000000" d="M138.8338,-134.7915C120.4168,-122.6984 123.0822,-86.7 94,-86.7"/>
<polygon fill="#000000" stroke="#000000" points="145.2881,-136.5723 152.0425,-142.1703 149.1441,-137.6361 153,-138.7 153,-138.7 153,-138.7 149.1441,-137.6361 153.9575,-135.2297 145.2881,-136.5723 145.2881,-136.5723"/>
<ellipse fill="none" stroke="#000000" cx="142.2034" cy="-135.7212" rx="3.2" ry="3.2"/>
</g>
</g>
</svg>
