<?xml version="1.0" encoding="UTF-8" standalone="no"?>
<!DOCTYPE svg PUBLIC "-//W3C//DTD SVG 1.1//EN"
 "http://www.w3.org/Graphics/SVG/1.1/DTD/svg11.dtd">
<!-- Generated by graphviz version 2.40.1 (20161225.0304)
 -->
<!-- Title: twoDegreesRelationshipsDiagram Pages: 1 -->
<svg width="453pt" height="259pt"
 viewBox="0.00 0.00 453.00 259.20" xmlns="http://www.w3.org/2000/svg" xmlns:xlink="http://www.w3.org/1999/xlink">
<g id="graph0" class="graph" transform="scale(1 1) rotate(0) translate(4 255.2)">
<title>twoDegreesRelationshipsDiagram</title>
<polygon fill="#ffffff" stroke="transparent" points="-4,4 -4,-255.2 449,-255.2 449,4 -4,4"/>
<text text-anchor="middle" x="72.4936" y="-7.3" font-family="Helvetica,sans-Serif" font-size="11.00" fill="#000000">Generated by SchemaSpy</text>
<!-- article -->
<g id="node1" class="node">
<title>article</title>
<g id="a_node1"><a xlink:href="../../tables/article.html" xlink:title="article" target="_top">
<polygon fill="#ffffff" stroke="transparent" points="142,-142.2 142,-247.2 236,-247.2 236,-142.2 142,-142.2"/>
<polygon fill="#f5f5f5" stroke="transparent" points="142,-223.7 142,-246.7 236,-246.7 236,-223.7 142,-223.7"/>
<polygon fill="none" stroke="#000000" points="142,-223.7 142,-246.7 236,-246.7 236,-223.7 142,-223.7"/>
<text text-anchor="start" x="147" y="-232.8" font-family="Helvetica,sans-Serif" font-weight="bold" font-size="11.00" fill="#000000">article</text>
<text text-anchor="start" x="201.0437" y="-231.8" font-family="Helvetica,sans-Serif" font-size="11.00" fill="#000000">[table]</text>
<polygon fill="none" stroke="#000000" points="142,-201.7 142,-223.7 236,-223.7 236,-201.7 142,-201.7"/>
<image xlink:href="../../images/primaryKeys.png" width="11px" height="12px" preserveAspectRatio="xMinYMin meet" x="147" y="-218.7"/>
<text text-anchor="start" x="162" y="-208.8" font-family="Helvetica,sans-Serif" font-size="11.00" fill="#000000">id</text>
<polygon fill="#ffffff" stroke="transparent" points="142,-179.7 142,-201.7 236,-201.7 236,-179.7 142,-179.7"/>
<polygon fill="none" stroke="#000000" points="142,-179.7 142,-201.7 236,-201.7 236,-179.7 142,-179.7"/>
<image xlink:href="../../images/foreignKeys.png" width="11px" height="12px" preserveAspectRatio="xMinYMin meet" x="147" y="-196.7"/>
<text text-anchor="start" x="162" y="-186.8" font-family="Helvetica,sans-Serif" font-size="11.00" fill="#000000">category_id</text>
<polygon fill="none" stroke="#000000" points="142,-160.7 142,-179.7 236,-179.7 236,-160.7 142,-160.7"/>
<text text-anchor="start" x="145" y="-166.8" font-family="Helvetica,sans-Serif" font-size="11.00" fill="#000000">...</text>
<polygon fill="#ffffff" stroke="transparent" points="142,-141.7 142,-160.7 164,-160.7 164,-141.7 142,-141.7"/>
<polygon fill="none" stroke="#000000" points="142,-141.7 142,-160.7 164,-160.7 164,-141.7 142,-141.7"/>
<text text-anchor="start" x="145" y="-147.8" font-family="Helvetica,sans-Serif" font-size="11.00" fill="#000000">&lt; 1</text>
<polygon fill="#ffffff" stroke="transparent" points="164,-141.7 164,-160.7 214,-160.7 214,-141.7 164,-141.7"/>
<polygon fill="none" stroke="#000000" points="164,-141.7 164,-160.7 214,-160.7 214,-141.7 164,-141.7"/>
<text text-anchor="start" x="166.6904" y="-147.8" font-family="Helvetica,sans-Serif" font-size="11.00" fill="#000000">102 rows</text>
<polygon fill="#ffffff" stroke="transparent" points="214,-141.7 214,-160.7 236,-160.7 236,-141.7 214,-141.7"/>
<polygon fill="none" stroke="#000000" points="214,-141.7 214,-160.7 236,-160.7 236,-141.7 214,-141.7"/>
<text text-anchor="start" x="217.4053" y="-147.8" font-family="Helvetica,sans-Serif" font-size="11.00" fill="#000000">1 &gt;</text>
</a>
</g>
</g>
<!-- category -->
<g id="node2" class="node">
<title>category</title>
<g id="a_node2"><a xlink:href="../../tables/category.html" xlink:title="category" target="_top">
<polygon fill="#ffffff" stroke="transparent" points="8,-163.2 8,-224.2 93,-224.2 93,-163.2 8,-163.2"/>
<polygon fill="#f5f5f5" stroke="transparent" points="8.5,-200.7 8.5,-223.7 93.5,-223.7 93.5,-200.7 8.5,-200.7"/>
<polygon fill="none" stroke="#000000" points="8.5,-200.7 8.5,-223.7 93.5,-223.7 93.5,-200.7 8.5,-200.7"/>
<text text-anchor="start" x="13.4108" y="-209.8" font-family="Helvetica,sans-Serif" font-weight="bold" font-size="11.00" fill="#000000">category</text>
<text text-anchor="start" x="59.0219" y="-208.8" font-family="Helvetica,sans-Serif" font-size="11.00" fill="#000000">[table]</text>
<polygon fill="none" stroke="#000000" points="8.5,-181.7 8.5,-200.7 93.5,-200.7 93.5,-181.7 8.5,-181.7"/>
<text text-anchor="start" x="11.5" y="-187.8" font-family="Helvetica,sans-Serif" font-size="11.00" fill="#000000">...</text>
<polygon fill="#ffffff" stroke="transparent" points="8.5,-162.7 8.5,-181.7 24.5,-181.7 24.5,-162.7 8.5,-162.7"/>
<polygon fill="none" stroke="#000000" points="8.5,-162.7 8.5,-181.7 24.5,-181.7 24.5,-162.7 8.5,-162.7"/>
<text text-anchor="start" x="11.5" y="-168.8" font-family="Helvetica,sans-Serif" font-size="11.00" fill="#000000"> &#160;</text>
<polygon fill="#ffffff" stroke="transparent" points="24.5,-162.7 24.5,-181.7 70.5,-181.7 70.5,-162.7 24.5,-162.7"/>
<polygon fill="none" stroke="#000000" points="24.5,-162.7 24.5,-181.7 70.5,-181.7 70.5,-162.7 24.5,-162.7"/>
<text text-anchor="start" x="28.9956" y="-168.8" font-family="Helvetica,sans-Serif" font-size="11.00" fill="#000000">11 rows</text>
<polygon fill="#ffffff" stroke="transparent" points="70.5,-162.7 70.5,-181.7 93.5,-181.7 93.5,-162.7 70.5,-162.7"/>
<polygon fill="none" stroke="#000000" points="70.5,-162.7 70.5,-181.7 93.5,-181.7 93.5,-162.7 70.5,-162.7"/>
<text text-anchor="start" x="74.9053" y="-168.8" font-family="Helvetica,sans-Serif" font-size="11.00" fill="#000000">1 &gt;</text>
</a>
</g>
</g>
<!-- article&#45;&gt;category -->
<g id="edge1" class="edge">
<title>article:w&#45;&gt;category:e</title>
<path fill="none" stroke="#000000" d="M127.2829,-190.7C116.2886,-190.7 109.1615,-190.7 93.5,-190.7"/>
<polygon fill="#000000" stroke="#000000" points="134,-190.7001 142,-194.3 138,-190.7 142,-190.7 142,-190.7 142,-190.7 138,-190.7 142,-187.1 134,-190.7001 134,-190.7001"/>
<ellipse fill="none" stroke="#000000" cx="130.8" cy="-190.7001" rx="3.2" ry="3.2"/>
</g>
<!-- comment -->
<g id="node3" class="node">
<title>comment</title>
<g id="a_node3"><a xlink:href="../../tables/comment.html" xlink:title="comment" target="_top">
<polygon fill="#ffffff" stroke="transparent" points="285,-62.7 285,-218.7 437,-218.7 437,-62.7 285,-62.7"/>
<polygon fill="#f5f5f5" stroke="transparent" points="287,-193.7 287,-216.7 435,-216.7 435,-193.7 287,-193.7"/>
<polygon fill="none" stroke="#000000" points="287,-193.7 287,-216.7 435,-216.7 435,-193.7 287,-193.7"/>
<text text-anchor="start" x="292" y="-202.8" font-family="Helvetica,sans-Serif" font-weight="bold" font-size="11.00" fill="#000000">comment</text>
<text text-anchor="start" x="400.0437" y="-201.8" font-family="Helvetica,sans-Serif" font-size="11.00" fill="#000000">[table]</text>
<polygon fill="none" stroke="#000000" points="287,-171.7 287,-193.7 368,-193.7 368,-171.7 287,-171.7"/>
<image xlink:href="../../images/primaryKeys.png" width="11px" height="12px" preserveAspectRatio="xMinYMin meet" x="292" y="-188.7"/>
<text text-anchor="start" x="307" y="-178.8" font-family="Helvetica,sans-Serif" font-size="11.00" fill="#000000">id</text>
<polygon fill="none" stroke="#000000" points="368,-171.7 368,-193.7 435,-193.7 435,-171.7 368,-171.7"/>
<text text-anchor="start" x="371" y="-179.4" font-family="Helvetica,sans-Serif" font-size="11.00" fill="#000000">int[10]</text>
<polygon fill="#ffffff" stroke="transparent" points="287,-149.7 287,-171.7 368,-171.7 368,-149.7 287,-149.7"/>
<polygon fill="none" stroke="#000000" points="287,-149.7 287,-171.7 368,-171.7 368,-149.7 287,-149.7"/>
<image xlink:href="../../images/foreignKeys.png" width="11px" height="12px" preserveAspectRatio="xMinYMin meet" x="292" y="-166.7"/>
<text text-anchor="start" x="307" y="-156.8" font-family="Helvetica,sans-Serif" font-size="11.00" fill="#000000">article_id</text>
<polygon fill="none" stroke="#000000" points="368,-149.7 368,-171.7 435,-171.7 435,-149.7 368,-149.7"/>
<text text-anchor="start" x="371" y="-157.4" font-family="Helvetica,sans-Serif" font-size="11.00" fill="#000000">int[10]</text>
<polygon fill="#ffffff" stroke="transparent" points="287,-127.7 287,-149.7 368,-149.7 368,-127.7 287,-127.7"/>
<polygon fill="none" stroke="#000000" points="287,-127.7 287,-149.7 368,-149.7 368,-127.7 287,-127.7"/>
<image xlink:href="../../images/foreignKeys.png" width="11px" height="12px" preserveAspectRatio="xMinYMin meet" x="292" y="-144.7"/>
<text text-anchor="start" x="307" y="-134.8" font-family="Helvetica,sans-Serif" font-size="11.00" fill="#000000">user_id</text>
<polygon fill="none" stroke="#000000" points="368,-127.7 368,-149.7 435,-149.7 435,-127.7 368,-127.7"/>
<text text-anchor="start" x="371" y="-135.4" font-family="Helvetica,sans-Serif" font-size="11.00" fill="#000000">int[10]</text>
<polygon fill="none" stroke="#000000" points="287,-105.7 287,-127.7 368,-127.7 368,-105.7 287,-105.7"/>
<text text-anchor="start" x="307" y="-112.8" font-family="Helvetica,sans-Serif" font-size="11.00" fill="#000000">content</text>
<polygon fill="none" stroke="#000000" points="368,-105.7 368,-127.7 435,-127.7 435,-105.7 368,-105.7"/>
<text text-anchor="start" x="370.9365" y="-113.4" font-family="Helvetica,sans-Serif" font-size="11.00" fill="#000000">varchar[255]</text>
<polygon fill="none" stroke="#000000" points="287,-83.7 287,-105.7 368,-105.7 368,-83.7 287,-83.7"/>
<text text-anchor="start" x="307" y="-90.8" font-family="Helvetica,sans-Serif" font-size="11.00" fill="#000000">created_at</text>
<polygon fill="none" stroke="#000000" points="368,-83.7 368,-105.7 435,-105.7 435,-83.7 368,-83.7"/>
<text text-anchor="start" x="371" y="-91.4" font-family="Helvetica,sans-Serif" font-size="11.00" fill="#000000">datetime[19]</text>
<polygon fill="#ffffff" stroke="transparent" points="287,-64.7 287,-83.7 313,-83.7 313,-64.7 287,-64.7"/>
<polygon fill="none" stroke="#000000" points="287,-64.7 287,-83.7 313,-83.7 313,-64.7 287,-64.7"/>
<text text-anchor="start" x="290" y="-70.8" font-family="Helvetica,sans-Serif" font-size="11.00" fill="#000000">&lt; 2</text>
<polygon fill="#ffffff" stroke="transparent" points="313,-64.7 313,-83.7 368,-83.7 368,-64.7 313,-64.7"/>
<polygon fill="none" stroke="#000000" points="313,-64.7 313,-83.7 368,-83.7 368,-64.7 313,-64.7"/>
<text text-anchor="start" x="320.3807" y="-70.8" font-family="Helvetica,sans-Serif" font-size="11.00" fill="#000000">100 rows</text>
<polygon fill="#ffffff" stroke="transparent" points="368,-64.7 368,-83.7 435,-83.7 435,-64.7 368,-64.7"/>
<polygon fill="none" stroke="#000000" points="368,-64.7 368,-83.7 435,-83.7 435,-64.7 368,-64.7"/>
<text text-anchor="start" x="416.4053" y="-70.8" font-family="Helvetica,sans-Serif" font-size="11.00" fill="#000000">0 &gt;</text>
<polygon fill="none" stroke="#000000" stroke-width="2" points="286,-63.7 286,-217.7 436,-217.7 436,-63.7 286,-63.7"/>
</a>
</g>
</g>
<!-- comment&#45;&gt;article -->
<g id="edge2" class="edge">
<title>comment:w&#45;&gt;article:e</title>
<path fill="none" stroke="#000000" d="M273.0468,-165.4988C258.161,-178.3719 262.3017,-212.7 236,-212.7"/>
<polygon fill="#000000" stroke="#000000" points="279.4349,-163.3018 288.1708,-164.1043 283.2175,-162.0009 287,-160.7 287,-160.7 287,-160.7 283.2175,-162.0009 285.8292,-157.2957 279.4349,-163.3018 279.4349,-163.3018"/>
<ellipse fill="none" stroke="#000000" cx="276.4089" cy="-164.3426" rx="3.2" ry="3.2"/>
</g>
<!-- user -->
<g id="node4" class="node">
<title>user</title>
<g id="a_node4"><a xlink:href="../../tables/user.html" xlink:title="user" target="_top">
<polygon fill="#ffffff" stroke="transparent" points="150.5,-38.2 150.5,-121.2 227.5,-121.2 227.5,-38.2 150.5,-38.2"/>
<polygon fill="#f5f5f5" stroke="transparent" points="151,-97.7 151,-120.7 228,-120.7 228,-97.7 151,-97.7"/>
<polygon fill="none" stroke="#000000" points="151,-97.7 151,-120.7 228,-120.7 228,-97.7 151,-97.7"/>
<text text-anchor="start" x="156" y="-106.8" font-family="Helvetica,sans-Serif" font-weight="bold" font-size="11.00" fill="#000000">user</text>
<text text-anchor="start" x="193.0437" y="-105.8" font-family="Helvetica,sans-Serif" font-size="11.00" fill="#000000">[table]</text>
<polygon fill="none" stroke="#000000" points="151,-75.7 151,-97.7 228,-97.7 228,-75.7 151,-75.7"/>
<image xlink:href="../../images/primaryKeys.png" width="11px" height="12px" preserveAspectRatio="xMinYMin meet" x="156" y="-92.7"/>
<text text-anchor="start" x="171" y="-82.8" font-family="Helvetica,sans-Serif" font-size="11.00" fill="#000000">id</text>
<polygon fill="none" stroke="#000000" points="151,-56.7 151,-75.7 228,-75.7 228,-56.7 151,-56.7"/>
<text text-anchor="start" x="154" y="-62.8" font-family="Helvetica,sans-Serif" font-size="11.00" fill="#000000">...</text>
<polygon fill="#ffffff" stroke="transparent" points="151,-37.7 151,-56.7 163,-56.7 163,-37.7 151,-37.7"/>
<polygon fill="none" stroke="#000000" points="151,-37.7 151,-56.7 163,-56.7 163,-37.7 151,-37.7"/>
<text text-anchor="start" x="153.9431" y="-43.8" font-family="Helvetica,sans-Serif" font-size="11.00" fill="#000000"> &#160;</text>
<polygon fill="#ffffff" stroke="transparent" points="163,-37.7 163,-56.7 207,-56.7 207,-37.7 163,-37.7"/>
<polygon fill="none" stroke="#000000" points="163,-37.7 163,-56.7 207,-56.7 207,-37.7 163,-37.7"/>
<text text-anchor="start" x="165.7478" y="-43.8" font-family="Helvetica,sans-Serif" font-size="11.00" fill="#000000">13 rows</text>
<polygon fill="#ffffff" stroke="transparent" points="207,-37.7 207,-56.7 228,-56.7 228,-37.7 207,-37.7"/>
<polygon fill="none" stroke="#000000" points="207,-37.7 207,-56.7 228,-56.7 228,-37.7 207,-37.7"/>
<text text-anchor="start" x="209.7027" y="-43.8" font-family="Helvetica,sans-Serif" font-size="11.00" fill="#000000">1 &gt;</text>
</a>
</g>
</g>
<!-- comment&#45;&gt;user -->
<g id="edge3" class="edge">
<title>comment:w&#45;&gt;user:e</title>
<path fill="none" stroke="#000000" d="M272.8338,-134.7915C254.4168,-122.6984 257.0822,-86.7 228,-86.7"/>
<polygon fill="#000000" stroke="#000000" points="279.2881,-136.5723 286.0425,-142.1703 283.1441,-137.6361 287,-138.7 287,-138.7 287,-138.7 283.1441,-137.6361 287.9575,-135.2297 279.2881,-136.5723 279.2881,-136.5723"/>
<ellipse fill="none" stroke="#000000" cx="276.2034" cy="-135.7212" rx="3.2" ry="3.2"/>
</g>
</g>
</svg>
