<?xml version="1.0" encoding="UTF-8" standalone="no"?>
<!DOCTYPE svg PUBLIC "-//W3C//DTD SVG 1.1//EN"
 "http://www.w3.org/Graphics/SVG/1.1/DTD/svg11.dtd">
<!-- Generated by graphviz version 2.40.1 (20161225.0304)
 -->
<!-- Title: oneDegreeRelationshipsDiagram Pages: 1 -->
<svg width="309pt" height="227pt"
 viewBox="0.00 0.00 309.00 226.70" xmlns="http://www.w3.org/2000/svg" xmlns:xlink="http://www.w3.org/1999/xlink">
<g id="graph0" class="graph" transform="scale(1 1) rotate(0) translate(4 222.7)">
<title>oneDegreeRelationshipsDiagram</title>
<polygon fill="#ffffff" stroke="transparent" points="-4,4 -4,-222.7 305,-222.7 305,4 -4,4"/>
<text text-anchor="middle" x="72.4936" y="-7.3" font-family="Helvetica,sans-Serif" font-size="11.00" fill="#000000">Generated by SchemaSpy</text>
<!-- comment -->
<g id="node1" class="node">
<title>comment</title>
<g id="a_node1"><a xlink:href="../../tables/comment.html" xlink:title="comment" target="_top">
<polygon fill="#ffffff" stroke="transparent" points="205,-87.7 205,-214.7 293,-214.7 293,-87.7 205,-87.7"/>
<polygon fill="#f5f5f5" stroke="transparent" points="205,-191.2 205,-214.2 293,-214.2 293,-191.2 205,-191.2"/>
<polygon fill="none" stroke="#000000" points="205,-191.2 205,-214.2 293,-214.2 293,-191.2 205,-191.2"/>
<text text-anchor="start" x="209.8873" y="-200.3" font-family="Helvetica,sans-Serif" font-weight="bold" font-size="11.00" fill="#000000">comment</text>
<text text-anchor="start" x="258.5219" y="-199.3" font-family="Helvetica,sans-Serif" font-size="11.00" fill="#000000">[table]</text>
<polygon fill="none" stroke="#000000" points="205,-169.2 205,-191.2 293,-191.2 293,-169.2 205,-169.2"/>
<image xlink:href="../../images/primaryKeys.png" width="11px" height="12px" preserveAspectRatio="xMinYMin meet" x="210" y="-186.2"/>
<text text-anchor="start" x="229" y="-176.3" font-family="Helvetica,sans-Serif" font-size="11.00" fill="#000000">id</text>
<polygon fill="#ffffff" stroke="transparent" points="205,-147.2 205,-169.2 293,-169.2 293,-147.2 205,-147.2"/>
<polygon fill="none" stroke="#000000" points="205,-147.2 205,-169.2 293,-169.2 293,-147.2 205,-147.2"/>
<image xlink:href="../../images/foreignKeys.png" width="11px" height="12px" preserveAspectRatio="xMinYMin meet" x="210" y="-164.2"/>
<text text-anchor="start" x="229" y="-154.3" font-family="Helvetica,sans-Serif" font-size="11.00" fill="#000000">article_id</text>
<polygon fill="#ffffff" stroke="transparent" points="205,-125.2 205,-147.2 293,-147.2 293,-125.2 205,-125.2"/>
<polygon fill="none" stroke="#000000" points="205,-125.2 205,-147.2 293,-147.2 293,-125.2 205,-125.2"/>
<image xlink:href="../../images/foreignKeys.png" width="11px" height="12px" preserveAspectRatio="xMinYMin meet" x="210" y="-142.2"/>
<text text-anchor="start" x="229" y="-132.3" font-family="Helvetica,sans-Serif" font-size="11.00" fill="#000000">user_id</text>
<polygon fill="none" stroke="#000000" points="205,-106.2 205,-125.2 293,-125.2 293,-106.2 205,-106.2"/>
<text text-anchor="start" x="208" y="-112.3" font-family="Helvetica,sans-Serif" font-size="11.00" fill="#000000">...</text>
<polygon fill="#ffffff" stroke="transparent" points="205,-87.2 205,-106.2 228,-106.2 228,-87.2 205,-87.2"/>
<polygon fill="none" stroke="#000000" points="205,-87.2 205,-106.2 228,-106.2 228,-87.2 205,-87.2"/>
<text text-anchor="start" x="208" y="-93.3" font-family="Helvetica,sans-Serif" font-size="11.00" fill="#000000">&lt; 2</text>
<polygon fill="#ffffff" stroke="transparent" points="228,-87.2 228,-106.2 279,-106.2 279,-87.2 228,-87.2"/>
<polygon fill="none" stroke="#000000" points="228,-87.2 228,-106.2 279,-106.2 279,-87.2 228,-87.2"/>
<text text-anchor="start" x="231.3807" y="-93.3" font-family="Helvetica,sans-Serif" font-size="11.00" fill="#000000">100 rows</text>
<polygon fill="#ffffff" stroke="transparent" points="279,-87.2 279,-106.2 293,-106.2 293,-87.2 279,-87.2"/>
<polygon fill="none" stroke="#000000" points="279,-87.2 279,-106.2 293,-106.2 293,-87.2 279,-87.2"/>
<text text-anchor="start" x="283.8862" y="-93.3" font-family="Helvetica,sans-Serif" font-size="11.00" fill="#000000"> &#160;</text>
</a>
</g>
</g>
<!-- user -->
<g id="node2" class="node">
<title>user</title>
<g id="a_node2"><a xlink:href="../../tables/user.html" xlink:title="user" target="_top">
<polygon fill="#ffffff" stroke="transparent" points="8,-38.2 8,-172.2 156,-172.2 156,-38.2 8,-38.2"/>
<polygon fill="#f5f5f5" stroke="transparent" points="10,-147.2 10,-170.2 154,-170.2 154,-147.2 10,-147.2"/>
<polygon fill="none" stroke="#000000" points="10,-147.2 10,-170.2 154,-170.2 154,-147.2 10,-147.2"/>
<text text-anchor="start" x="15" y="-156.3" font-family="Helvetica,sans-Serif" font-weight="bold" font-size="11.00" fill="#000000">user</text>
<text text-anchor="start" x="119.0437" y="-155.3" font-family="Helvetica,sans-Serif" font-size="11.00" fill="#000000">[table]</text>
<polygon fill="none" stroke="#000000" points="10,-125.2 10,-147.2 87,-147.2 87,-125.2 10,-125.2"/>
<image xlink:href="../../images/primaryKeys.png" width="11px" height="12px" preserveAspectRatio="xMinYMin meet" x="15" y="-142.2"/>
<text text-anchor="start" x="30" y="-132.3" font-family="Helvetica,sans-Serif" font-size="11.00" fill="#000000">id</text>
<polygon fill="none" stroke="#000000" points="87,-125.2 87,-147.2 154,-147.2 154,-125.2 87,-125.2"/>
<text text-anchor="start" x="90" y="-132.9" font-family="Helvetica,sans-Serif" font-size="11.00" fill="#000000">int[10]</text>
<polygon fill="none" stroke="#000000" points="10,-103.2 10,-125.2 87,-125.2 87,-103.2 10,-103.2"/>
<text text-anchor="start" x="30" y="-110.3" font-family="Helvetica,sans-Serif" font-size="11.00" fill="#000000">username</text>
<polygon fill="none" stroke="#000000" points="87,-103.2 87,-125.2 154,-125.2 154,-103.2 87,-103.2"/>
<text text-anchor="start" x="89.9365" y="-110.9" font-family="Helvetica,sans-Serif" font-size="11.00" fill="#000000">varchar[255]</text>
<polygon fill="none" stroke="#000000" points="10,-81.2 10,-103.2 87,-103.2 87,-81.2 10,-81.2"/>
<text text-anchor="start" x="30" y="-88.3" font-family="Helvetica,sans-Serif" font-size="11.00" fill="#000000">firstname</text>
<polygon fill="none" stroke="#000000" points="87,-81.2 87,-103.2 154,-103.2 154,-81.2 87,-81.2"/>
<text text-anchor="start" x="89.9365" y="-88.9" font-family="Helvetica,sans-Serif" font-size="11.00" fill="#000000">varchar[255]</text>
<polygon fill="none" stroke="#000000" points="10,-59.2 10,-81.2 87,-81.2 87,-59.2 10,-59.2"/>
<text text-anchor="start" x="30" y="-66.3" font-family="Helvetica,sans-Serif" font-size="11.00" fill="#000000">lastname</text>
<polygon fill="none" stroke="#000000" points="87,-59.2 87,-81.2 154,-81.2 154,-59.2 87,-59.2"/>
<text text-anchor="start" x="89.9365" y="-66.9" font-family="Helvetica,sans-Serif" font-size="11.00" fill="#000000">varchar[255]</text>
<polygon fill="#ffffff" stroke="transparent" points="10,-40.2 10,-59.2 37,-59.2 37,-40.2 10,-40.2"/>
<polygon fill="none" stroke="#000000" points="10,-40.2 10,-59.2 37,-59.2 37,-40.2 10,-40.2"/>
<text text-anchor="start" x="13" y="-46.3" font-family="Helvetica,sans-Serif" font-size="11.00" fill="#000000">&lt; 0</text>
<polygon fill="#ffffff" stroke="transparent" points="37,-40.2 37,-59.2 87,-59.2 87,-40.2 37,-40.2"/>
<polygon fill="none" stroke="#000000" points="37,-40.2 37,-59.2 87,-59.2 87,-40.2 37,-40.2"/>
<text text-anchor="start" x="45.4956" y="-46.3" font-family="Helvetica,sans-Serif" font-size="11.00" fill="#000000">13 rows</text>
<polygon fill="#ffffff" stroke="transparent" points="87,-40.2 87,-59.2 154,-59.2 154,-40.2 87,-40.2"/>
<polygon fill="none" stroke="#000000" points="87,-40.2 87,-59.2 154,-59.2 154,-40.2 87,-40.2"/>
<text text-anchor="start" x="135.4053" y="-46.3" font-family="Helvetica,sans-Serif" font-size="11.00" fill="#000000">1 &gt;</text>
<polygon fill="none" stroke="#000000" stroke-width="2" points="9,-39.2 9,-171.2 155,-171.2 155,-39.2 9,-39.2"/>
</a>
</g>
</g>
<!-- comment&#45;&gt;user -->
<g id="edge1" class="edge">
<title>comment:w&#45;&gt;user:e</title>
<path fill="none" stroke="#000000" d="M190.276,-136.2C178.2815,-136.2 170.8229,-136.2 154,-136.2"/>
<polygon fill="#000000" stroke="#000000" points="197,-136.2001 205,-139.8 201,-136.2 205,-136.2 205,-136.2 205,-136.2 201,-136.2 205,-132.6 197,-136.2001 197,-136.2001"/>
<ellipse fill="none" stroke="#000000" cx="193.8" cy="-136.2001" rx="3.2" ry="3.2"/>
</g>
</g>
</svg>
