<?xml version="1.0" encoding="UTF-8" standalone="no"?>
<!DOCTYPE svg PUBLIC "-//W3C//DTD SVG 1.1//EN"
 "http://www.w3.org/Graphics/SVG/1.1/DTD/svg11.dtd">
<!-- Generated by graphviz version 2.40.1 (20161225.0304)
 -->
<!-- Title: twoDegreesRelationshipsDiagram Pages: 1 -->
<svg width="309pt" height="267pt"
 viewBox="0.00 0.00 309.00 266.70" xmlns="http://www.w3.org/2000/svg" xmlns:xlink="http://www.w3.org/1999/xlink">
<g id="graph0" class="graph" transform="scale(1 1) rotate(0) translate(4 262.7)">
<title>twoDegreesRelationshipsDiagram</title>
<polygon fill="#ffffff" stroke="transparent" points="-4,4 -4,-262.7 305,-262.7 305,4 -4,4"/>
<text text-anchor="middle" x="72.4936" y="-7.3" font-family="Helvetica,sans-Serif" font-size="11.00" fill="#000000">Generated by SchemaSpy</text>
<!-- comment -->
<g id="node1" class="node">
<title>comment</title>
<g id="a_node1"><a xlink:href="../../tables/comment.html" xlink:title="comment" target="_top">
<polygon fill="#ffffff" stroke="transparent" points="205,-118.7 205,-245.7 293,-245.7 293,-118.7 205,-118.7"/>
<polygon fill="#f5f5f5" stroke="transparent" points="205,-222.2 205,-245.2 293,-245.2 293,-222.2 205,-222.2"/>
<polygon fill="none" stroke="#000000" points="205,-222.2 205,-245.2 293,-245.2 293,-222.2 205,-222.2"/>
<text text-anchor="start" x="209.8873" y="-231.3" font-family="Helvetica,sans-Serif" font-weight="bold" font-size="11.00" fill="#000000">comment</text>
<text text-anchor="start" x="258.5219" y="-230.3" font-family="Helvetica,sans-Serif" font-size="11.00" fill="#000000">[table]</text>
<polygon fill="none" stroke="#000000" points="205,-200.2 205,-222.2 293,-222.2 293,-200.2 205,-200.2"/>
<image xlink:href="../../images/primaryKeys.png" width="11px" height="12px" preserveAspectRatio="xMinYMin meet" x="210" y="-217.2"/>
<text text-anchor="start" x="229" y="-207.3" font-family="Helvetica,sans-Serif" font-size="11.00" fill="#000000">id</text>
<polygon fill="#ffffff" stroke="transparent" points="205,-178.2 205,-200.2 293,-200.2 293,-178.2 205,-178.2"/>
<polygon fill="none" stroke="#000000" points="205,-178.2 205,-200.2 293,-200.2 293,-178.2 205,-178.2"/>
<image xlink:href="../../images/foreignKeys.png" width="11px" height="12px" preserveAspectRatio="xMinYMin meet" x="210" y="-195.2"/>
<text text-anchor="start" x="229" y="-185.3" font-family="Helvetica,sans-Serif" font-size="11.00" fill="#000000">article_id</text>
<polygon fill="#ffffff" stroke="transparent" points="205,-156.2 205,-178.2 293,-178.2 293,-156.2 205,-156.2"/>
<polygon fill="none" stroke="#000000" points="205,-156.2 205,-178.2 293,-178.2 293,-156.2 205,-156.2"/>
<image xlink:href="../../images/foreignKeys.png" width="11px" height="12px" preserveAspectRatio="xMinYMin meet" x="210" y="-173.2"/>
<text text-anchor="start" x="229" y="-163.3" font-family="Helvetica,sans-Serif" font-size="11.00" fill="#000000">user_id</text>
<polygon fill="none" stroke="#000000" points="205,-137.2 205,-156.2 293,-156.2 293,-137.2 205,-137.2"/>
<text text-anchor="start" x="208" y="-143.3" font-family="Helvetica,sans-Serif" font-size="11.00" fill="#000000">...</text>
<polygon fill="#ffffff" stroke="transparent" points="205,-118.2 205,-137.2 228,-137.2 228,-118.2 205,-118.2"/>
<polygon fill="none" stroke="#000000" points="205,-118.2 205,-137.2 228,-137.2 228,-118.2 205,-118.2"/>
<text text-anchor="start" x="208" y="-124.3" font-family="Helvetica,sans-Serif" font-size="11.00" fill="#000000">&lt; 2</text>
<polygon fill="#ffffff" stroke="transparent" points="228,-118.2 228,-137.2 279,-137.2 279,-118.2 228,-118.2"/>
<polygon fill="none" stroke="#000000" points="228,-118.2 228,-137.2 279,-137.2 279,-118.2 228,-118.2"/>
<text text-anchor="start" x="231.3807" y="-124.3" font-family="Helvetica,sans-Serif" font-size="11.00" fill="#000000">100 rows</text>
<polygon fill="#ffffff" stroke="transparent" points="279,-118.2 279,-137.2 293,-137.2 293,-118.2 279,-118.2"/>
<polygon fill="none" stroke="#000000" points="279,-118.2 279,-137.2 293,-137.2 293,-118.2 279,-118.2"/>
<text text-anchor="start" x="283.8862" y="-124.3" font-family="Helvetica,sans-Serif" font-size="11.00" fill="#000000"> &#160;</text>
</a>
</g>
</g>
<!-- article -->
<g id="node2" class="node">
<title>article</title>
<g id="a_node2"><a xlink:href="../../tables/article.html" xlink:title="article" target="_top">
<polygon fill="#ffffff" stroke="transparent" points="36,-193.7 36,-254.7 128,-254.7 128,-193.7 36,-193.7"/>
<polygon fill="#f5f5f5" stroke="transparent" points="36,-231.2 36,-254.2 128,-254.2 128,-231.2 36,-231.2"/>
<polygon fill="none" stroke="#000000" points="36,-231.2 36,-254.2 128,-254.2 128,-231.2 36,-231.2"/>
<text text-anchor="start" x="41" y="-240.3" font-family="Helvetica,sans-Serif" font-weight="bold" font-size="11.00" fill="#000000">article</text>
<text text-anchor="start" x="93.0437" y="-239.3" font-family="Helvetica,sans-Serif" font-size="11.00" fill="#000000">[table]</text>
<polygon fill="none" stroke="#000000" points="36,-212.2 36,-231.2 128,-231.2 128,-212.2 36,-212.2"/>
<text text-anchor="start" x="39" y="-218.3" font-family="Helvetica,sans-Serif" font-size="11.00" fill="#000000">...</text>
<polygon fill="#ffffff" stroke="transparent" points="36,-193.2 36,-212.2 57,-212.2 57,-193.2 36,-193.2"/>
<polygon fill="none" stroke="#000000" points="36,-193.2 36,-212.2 57,-212.2 57,-193.2 36,-193.2"/>
<text text-anchor="start" x="38.7027" y="-199.3" font-family="Helvetica,sans-Serif" font-size="11.00" fill="#000000">&lt; 1</text>
<polygon fill="#ffffff" stroke="transparent" points="57,-193.2 57,-212.2 107,-212.2 107,-193.2 57,-193.2"/>
<polygon fill="none" stroke="#000000" points="57,-193.2 57,-212.2 107,-212.2 107,-193.2 57,-193.2"/>
<text text-anchor="start" x="59.6904" y="-199.3" font-family="Helvetica,sans-Serif" font-size="11.00" fill="#000000">102 rows</text>
<polygon fill="#ffffff" stroke="transparent" points="107,-193.2 107,-212.2 128,-212.2 128,-193.2 107,-193.2"/>
<polygon fill="none" stroke="#000000" points="107,-193.2 107,-212.2 128,-212.2 128,-193.2 107,-193.2"/>
<text text-anchor="start" x="109.7027" y="-199.3" font-family="Helvetica,sans-Serif" font-size="11.00" fill="#000000">1 &gt;</text>
</a>
</g>
</g>
<!-- comment&#45;&gt;article -->
<g id="edge1" class="edge">
<title>comment:w&#45;&gt;article:e</title>
<path fill="none" stroke="#000000" d="M190.5325,-191.1059C166.332,-197.9949 159.5588,-221.2 128,-221.2"/>
<polygon fill="#000000" stroke="#000000" points="197.0685,-190.2449 205.4702,-192.7692 201.0343,-189.7225 205,-189.2 205,-189.2 205,-189.2 201.0343,-189.7225 204.5298,-185.6308 197.0685,-190.2449 197.0685,-190.2449"/>
<ellipse fill="none" stroke="#000000" cx="193.8959" cy="-190.6629" rx="3.2" ry="3.2"/>
</g>
<!-- user -->
<g id="node3" class="node">
<title>user</title>
<g id="a_node3"><a xlink:href="../../tables/user.html" xlink:title="user" target="_top">
<polygon fill="#ffffff" stroke="transparent" points="8,-38.2 8,-172.2 156,-172.2 156,-38.2 8,-38.2"/>
<polygon fill="#f5f5f5" stroke="transparent" points="10,-147.2 10,-170.2 154,-170.2 154,-147.2 10,-147.2"/>
<polygon fill="none" stroke="#000000" points="10,-147.2 10,-170.2 154,-170.2 154,-147.2 10,-147.2"/>
<text text-anchor="start" x="15" y="-156.3" font-family="Helvetica,sans-Serif" font-weight="bold" font-size="11.00" fill="#000000">user</text>
<text text-anchor="start" x="119.0437" y="-155.3" font-family="Helvetica,sans-Serif" font-size="11.00" fill="#000000">[table]</text>
<polygon fill="none" stroke="#000000" points="10,-125.2 10,-147.2 87,-147.2 87,-125.2 10,-125.2"/>
<image xlink:href="../../images/primaryKeys.png" width="11px" height="12px" preserveAspectRatio="xMinYMin meet" x="15" y="-142.2"/>
<text text-anchor="start" x="30" y="-132.3" font-family="Helvetica,sans-Serif" font-size="11.00" fill="#000000">id</text>
<polygon fill="none" stroke="#000000" points="87,-125.2 87,-147.2 154,-147.2 154,-125.2 87,-125.2"/>
<text text-anchor="start" x="90" y="-132.9" font-family="Helvetica,sans-Serif" font-size="11.00" fill="#000000">int[10]</text>
<polygon fill="none" stroke="#000000" points="10,-103.2 10,-125.2 87,-125.2 87,-103.2 10,-103.2"/>
<text text-anchor="start" x="30" y="-110.3" font-family="Helvetica,sans-Serif" font-size="11.00" fill="#000000">username</text>
<polygon fill="none" stroke="#000000" points="87,-103.2 87,-125.2 154,-125.2 154,-103.2 87,-103.2"/>
<text text-anchor="start" x="89.9365" y="-110.9" font-family="Helvetica,sans-Serif" font-size="11.00" fill="#000000">varchar[255]</text>
<polygon fill="none" stroke="#000000" points="10,-81.2 10,-103.2 87,-103.2 87,-81.2 10,-81.2"/>
<text text-anchor="start" x="30" y="-88.3" font-family="Helvetica,sans-Serif" font-size="11.00" fill="#000000">firstname</text>
<polygon fill="none" stroke="#000000" points="87,-81.2 87,-103.2 154,-103.2 154,-81.2 87,-81.2"/>
<text text-anchor="start" x="89.9365" y="-88.9" font-family="Helvetica,sans-Serif" font-size="11.00" fill="#000000">varchar[255]</text>
<polygon fill="none" stroke="#000000" points="10,-59.2 10,-81.2 87,-81.2 87,-59.2 10,-59.2"/>
<text text-anchor="start" x="30" y="-66.3" font-family="Helvetica,sans-Serif" font-size="11.00" fill="#000000">lastname</text>
<polygon fill="none" stroke="#000000" points="87,-59.2 87,-81.2 154,-81.2 154,-59.2 87,-59.2"/>
<text text-anchor="start" x="89.9365" y="-66.9" font-family="Helvetica,sans-Serif" font-size="11.00" fill="#000000">varchar[255]</text>
<polygon fill="#ffffff" stroke="transparent" points="10,-40.2 10,-59.2 37,-59.2 37,-40.2 10,-40.2"/>
<polygon fill="none" stroke="#000000" points="10,-40.2 10,-59.2 37,-59.2 37,-40.2 10,-40.2"/>
<text text-anchor="start" x="13" y="-46.3" font-family="Helvetica,sans-Serif" font-size="11.00" fill="#000000">&lt; 0</text>
<polygon fill="#ffffff" stroke="transparent" points="37,-40.2 37,-59.2 87,-59.2 87,-40.2 37,-40.2"/>
<polygon fill="none" stroke="#000000" points="37,-40.2 37,-59.2 87,-59.2 87,-40.2 37,-40.2"/>
<text text-anchor="start" x="45.4956" y="-46.3" font-family="Helvetica,sans-Serif" font-size="11.00" fill="#000000">13 rows</text>
<polygon fill="#ffffff" stroke="transparent" points="87,-40.2 87,-59.2 154,-59.2 154,-40.2 87,-40.2"/>
<polygon fill="none" stroke="#000000" points="87,-40.2 87,-59.2 154,-59.2 154,-40.2 87,-40.2"/>
<text text-anchor="start" x="135.4053" y="-46.3" font-family="Helvetica,sans-Serif" font-size="11.00" fill="#000000">1 &gt;</text>
<polygon fill="none" stroke="#000000" stroke-width="2" points="9,-39.2 9,-171.2 155,-171.2 155,-39.2 9,-39.2"/>
</a>
</g>
</g>
<!-- comment&#45;&gt;user -->
<g id="edge2" class="edge">
<title>comment:w&#45;&gt;user:e</title>
<path fill="none" stroke="#000000" d="M191.0967,-163.3988C178.0044,-155.1209 174.7231,-136.2 154,-136.2"/>
<polygon fill="#000000" stroke="#000000" points="197.2832,-165.0902 204.0506,-170.6726 201.1416,-166.1451 205,-167.2 205,-167.2 205,-167.2 201.1416,-166.1451 205.9494,-163.7274 197.2832,-165.0902 197.2832,-165.0902"/>
<ellipse fill="none" stroke="#000000" cx="194.1965" cy="-164.2462" rx="3.2" ry="3.2"/>
</g>
</g>
</svg>
