<?xml version="1.0" encoding="UTF-8" standalone="no"?>
<!DOCTYPE svg PUBLIC "-//W3C//DTD SVG 1.1//EN"
 "http://www.w3.org/Graphics/SVG/1.1/DTD/svg11.dtd">
<!-- Generated by graphviz version 2.40.1 (20161225.0304)
 -->
<!-- Title: contact Pages: 1 -->
<svg width="243pt" height="216pt"
 viewBox="0.00 0.00 243.00 216.00" xmlns="http://www.w3.org/2000/svg" xmlns:xlink="http://www.w3.org/1999/xlink">
<g id="graph0" class="graph" transform="scale(1 1) rotate(0) translate(4 212)">
<title>contact</title>
<polygon fill="#ffffff" stroke="transparent" points="-4,4 -4,-212 239,-212 239,4 -4,4"/>
<!-- contact -->
<g id="node1" class="node">
<title>contact</title>
<g id="a_node1"><a xlink:href="../../tables/contact.html" xlink:title="contact" target="_top">
<polygon fill="#ffffff" stroke="transparent" points="8,-4 8,-204 227,-204 227,-4 8,-4"/>
<polygon fill="#f5f5f5" stroke="transparent" points="10.5,-179 10.5,-202 225.5,-202 225.5,-179 10.5,-179"/>
<polygon fill="none" stroke="#000000" points="10.5,-179 10.5,-202 225.5,-202 225.5,-179 10.5,-179"/>
<text text-anchor="start" x="15.5" y="-188.1" font-family="Helvetica,sans-Serif" font-weight="bold" font-size="11.00" fill="#000000">contact</text>
<text text-anchor="start" x="190.5437" y="-187.1" font-family="Helvetica,sans-Serif" font-size="11.00" fill="#000000">[table]</text>
<polygon fill="none" stroke="#000000" points="10.5,-157 10.5,-179 114.5,-179 114.5,-157 10.5,-157"/>
<image xlink:href="../../images/primaryKeys.png" width="11px" height="12px" preserveAspectRatio="xMinYMin meet" x="15.5" y="-174"/>
<text text-anchor="start" x="30.5" y="-164.1" font-family="Helvetica,sans-Serif" font-size="11.00" fill="#000000">id</text>
<polygon fill="none" stroke="#000000" points="114.5,-157 114.5,-179 225.5,-179 225.5,-157 114.5,-157"/>
<text text-anchor="start" x="117.5" y="-164.7" font-family="Helvetica,sans-Serif" font-size="11.00" fill="#000000">int[10]</text>
<polygon fill="none" stroke="#000000" points="10.5,-135 10.5,-157 114.5,-157 114.5,-135 10.5,-135"/>
<text text-anchor="start" x="30.5" y="-142.1" font-family="Helvetica,sans-Serif" font-size="11.00" fill="#000000">firstname</text>
<polygon fill="none" stroke="#000000" points="114.5,-135 114.5,-157 225.5,-157 225.5,-135 114.5,-135"/>
<text text-anchor="start" x="117.5" y="-142.7" font-family="Helvetica,sans-Serif" font-size="11.00" fill="#000000">varchar[30]</text>
<polygon fill="none" stroke="#000000" points="10.5,-113 10.5,-135 114.5,-135 114.5,-113 10.5,-113"/>
<text text-anchor="start" x="30.5" y="-120.1" font-family="Helvetica,sans-Serif" font-size="11.00" fill="#000000">lastname</text>
<polygon fill="none" stroke="#000000" points="114.5,-113 114.5,-135 225.5,-135 225.5,-113 114.5,-113"/>
<text text-anchor="start" x="117.5" y="-120.7" font-family="Helvetica,sans-Serif" font-size="11.00" fill="#000000">varchar[30]</text>
<polygon fill="none" stroke="#000000" points="10.5,-91 10.5,-113 114.5,-113 114.5,-91 10.5,-91"/>
<text text-anchor="start" x="30.5" y="-98.1" font-family="Helvetica,sans-Serif" font-size="11.00" fill="#000000">email_address</text>
<polygon fill="none" stroke="#000000" points="114.5,-91 114.5,-113 225.5,-113 225.5,-91 114.5,-91"/>
<text text-anchor="start" x="117.5" y="-98.7" font-family="Helvetica,sans-Serif" font-size="11.00" fill="#000000">varchar[40]</text>
<polygon fill="none" stroke="#000000" points="10.5,-69 10.5,-91 114.5,-91 114.5,-69 10.5,-69"/>
<text text-anchor="start" x="30.5" y="-76.1" font-family="Helvetica,sans-Serif" font-size="11.00" fill="#000000">subject</text>
<polygon fill="none" stroke="#000000" points="114.5,-69 114.5,-91 225.5,-91 225.5,-69 114.5,-69"/>
<text text-anchor="start" x="117.5" y="-76.7" font-family="Helvetica,sans-Serif" font-size="11.00" fill="#000000">varchar[100]</text>
<polygon fill="none" stroke="#000000" points="10.5,-47 10.5,-69 114.5,-69 114.5,-47 10.5,-47"/>
<text text-anchor="start" x="30.5" y="-54.1" font-family="Helvetica,sans-Serif" font-size="11.00" fill="#000000">content</text>
<polygon fill="none" stroke="#000000" points="114.5,-47 114.5,-69 225.5,-69 225.5,-47 114.5,-47"/>
<text text-anchor="start" x="117.1115" y="-54.7" font-family="Helvetica,sans-Serif" font-size="11.00" fill="#000000">longtext[2147483647]</text>
<polygon fill="none" stroke="#000000" points="10.5,-25 10.5,-47 114.5,-47 114.5,-25 10.5,-25"/>
<text text-anchor="start" x="30.5" y="-32.1" font-family="Helvetica,sans-Serif" font-size="11.00" fill="#000000">created_at</text>
<polygon fill="none" stroke="#000000" points="114.5,-25 114.5,-47 225.5,-47 225.5,-25 114.5,-25"/>
<text text-anchor="start" x="117.5" y="-32.7" font-family="Helvetica,sans-Serif" font-size="11.00" fill="#000000">datetime[19]</text>
<polygon fill="#ffffff" stroke="transparent" points="10.5,-6 10.5,-25 53.5,-25 53.5,-6 10.5,-6"/>
<polygon fill="none" stroke="#000000" points="10.5,-6 10.5,-25 53.5,-25 53.5,-6 10.5,-6"/>
<text text-anchor="start" x="13.5" y="-12.1" font-family="Helvetica,sans-Serif" font-size="11.00" fill="#000000">&lt; 0</text>
<polygon fill="#ffffff" stroke="transparent" points="53.5,-6 53.5,-25 114.5,-25 114.5,-6 53.5,-6"/>
<polygon fill="none" stroke="#000000" points="53.5,-6 53.5,-25 114.5,-25 114.5,-6 53.5,-6"/>
<text text-anchor="start" x="79.1105" y="-12.1" font-family="Helvetica,sans-Serif" font-size="11.00" fill="#000000">5 rows</text>
<polygon fill="#ffffff" stroke="transparent" points="114.5,-6 114.5,-25 225.5,-25 225.5,-6 114.5,-6"/>
<polygon fill="none" stroke="#000000" points="114.5,-6 114.5,-25 225.5,-25 225.5,-6 114.5,-6"/>
<text text-anchor="start" x="206.9053" y="-12.1" font-family="Helvetica,sans-Serif" font-size="11.00" fill="#000000">0 &gt;</text>
<polygon fill="none" stroke="#000000" stroke-width="2" points="9,-5 9,-203 226,-203 226,-5 9,-5"/>
</a>
</g>
</g>
</g>
</svg>
