<?xml version="1.0" encoding="UTF-8" standalone="no"?>
<!DOCTYPE svg PUBLIC "-//W3C//DTD SVG 1.1//EN"
 "http://www.w3.org/Graphics/SVG/1.1/DTD/svg11.dtd">
<!-- Generated by graphviz version 2.40.1 (20161225.0304)
 -->
<!-- Title: largeRelationshipsDiagram Pages: 1 -->
<svg width="389pt" height="397pt"
 viewBox="0.00 0.00 389.00 397.20" xmlns="http://www.w3.org/2000/svg" xmlns:xlink="http://www.w3.org/1999/xlink">
<g id="graph0" class="graph" transform="scale(1 1) rotate(0) translate(4 393.2)">
<title>largeRelationshipsDiagram</title>
<polygon fill="#ffffff" stroke="transparent" points="-4,4 -4,-393.2 385,-393.2 385,4 -4,4"/>
<text text-anchor="middle" x="72.4936" y="-7.3" font-family="Helvetica,sans-Serif" font-size="11.00" fill="#000000">Generated by SchemaSpy</text>
<!-- article -->
<g id="node1" class="node">
<title>article</title>
<g id="a_node1"><a xlink:href="../../tables/article.html" xlink:title="article" target="_top">
<polygon fill="#ffffff" stroke="transparent" points="142,-189.2 142,-385.2 236,-385.2 236,-189.2 142,-189.2"/>
<polygon fill="#f5f5f5" stroke="transparent" points="142,-362.2 142,-385.2 236,-385.2 236,-362.2 142,-362.2"/>
<polygon fill="none" stroke="#000000" points="142,-362.2 142,-385.2 236,-385.2 236,-362.2 142,-362.2"/>
<text text-anchor="start" x="147" y="-371.3" font-family="Helvetica,sans-Serif" font-weight="bold" font-size="11.00" fill="#000000">article</text>
<text text-anchor="start" x="201.0437" y="-370.3" font-family="Helvetica,sans-Serif" font-size="11.00" fill="#000000">[table]</text>
<polygon fill="none" stroke="#000000" points="142,-340.2 142,-362.2 236,-362.2 236,-340.2 142,-340.2"/>
<image xlink:href="../../images/primaryKeys.png" width="11px" height="12px" preserveAspectRatio="xMinYMin meet" x="147" y="-357.2"/>
<text text-anchor="start" x="162" y="-347.3" font-family="Helvetica,sans-Serif" font-size="11.00" fill="#000000">id</text>
<polygon fill="#ffffff" stroke="transparent" points="142,-318.2 142,-340.2 236,-340.2 236,-318.2 142,-318.2"/>
<polygon fill="none" stroke="#000000" points="142,-318.2 142,-340.2 236,-340.2 236,-318.2 142,-318.2"/>
<image xlink:href="../../images/foreignKeys.png" width="11px" height="12px" preserveAspectRatio="xMinYMin meet" x="147" y="-335.2"/>
<text text-anchor="start" x="162" y="-325.3" font-family="Helvetica,sans-Serif" font-size="11.00" fill="#000000">category_id</text>
<polygon fill="none" stroke="#000000" points="142,-296.2 142,-318.2 236,-318.2 236,-296.2 142,-296.2"/>
<text text-anchor="start" x="162" y="-303.3" font-family="Helvetica,sans-Serif" font-size="11.00" fill="#000000">title</text>
<polygon fill="none" stroke="#000000" points="142,-274.2 142,-296.2 236,-296.2 236,-274.2 142,-274.2"/>
<text text-anchor="start" x="162" y="-281.3" font-family="Helvetica,sans-Serif" font-size="11.00" fill="#000000">content</text>
<polygon fill="none" stroke="#000000" points="142,-252.2 142,-274.2 236,-274.2 236,-252.2 142,-252.2"/>
<text text-anchor="start" x="162" y="-259.3" font-family="Helvetica,sans-Serif" font-size="11.00" fill="#000000">created_at</text>
<polygon fill="none" stroke="#000000" points="142,-230.2 142,-252.2 236,-252.2 236,-230.2 142,-230.2"/>
<text text-anchor="start" x="162" y="-237.3" font-family="Helvetica,sans-Serif" font-size="11.00" fill="#000000">slug</text>
<polygon fill="none" stroke="#000000" points="142,-208.2 142,-230.2 236,-230.2 236,-208.2 142,-208.2"/>
<text text-anchor="start" x="162" y="-215.3" font-family="Helvetica,sans-Serif" font-size="11.00" fill="#000000">is_published</text>
<polygon fill="#ffffff" stroke="transparent" points="142,-189.2 142,-208.2 164,-208.2 164,-189.2 142,-189.2"/>
<polygon fill="none" stroke="#000000" points="142,-189.2 142,-208.2 164,-208.2 164,-189.2 142,-189.2"/>
<text text-anchor="start" x="145" y="-195.3" font-family="Helvetica,sans-Serif" font-size="11.00" fill="#000000">&lt; 1</text>
<polygon fill="#ffffff" stroke="transparent" points="164,-189.2 164,-208.2 214,-208.2 214,-189.2 164,-189.2"/>
<polygon fill="none" stroke="#000000" points="164,-189.2 164,-208.2 214,-208.2 214,-189.2 164,-189.2"/>
<text text-anchor="start" x="166.6904" y="-195.3" font-family="Helvetica,sans-Serif" font-size="11.00" fill="#000000">102 rows</text>
<polygon fill="#ffffff" stroke="transparent" points="214,-189.2 214,-208.2 236,-208.2 236,-189.2 214,-189.2"/>
<polygon fill="none" stroke="#000000" points="214,-189.2 214,-208.2 236,-208.2 236,-189.2 214,-189.2"/>
<text text-anchor="start" x="217.4053" y="-195.3" font-family="Helvetica,sans-Serif" font-size="11.00" fill="#000000">1 &gt;</text>
</a>
</g>
</g>
<!-- category -->
<g id="node2" class="node">
<title>category</title>
<g id="a_node2"><a xlink:href="../../tables/category.html" xlink:title="category" target="_top">
<polygon fill="#ffffff" stroke="transparent" points="8,-255.2 8,-363.2 93,-363.2 93,-255.2 8,-255.2"/>
<polygon fill="#f5f5f5" stroke="transparent" points="8.5,-340.2 8.5,-363.2 93.5,-363.2 93.5,-340.2 8.5,-340.2"/>
<polygon fill="none" stroke="#000000" points="8.5,-340.2 8.5,-363.2 93.5,-363.2 93.5,-340.2 8.5,-340.2"/>
<text text-anchor="start" x="13.4108" y="-349.3" font-family="Helvetica,sans-Serif" font-weight="bold" font-size="11.00" fill="#000000">category</text>
<text text-anchor="start" x="59.0219" y="-348.3" font-family="Helvetica,sans-Serif" font-size="11.00" fill="#000000">[table]</text>
<polygon fill="none" stroke="#000000" points="8.5,-318.2 8.5,-340.2 93.5,-340.2 93.5,-318.2 8.5,-318.2"/>
<image xlink:href="../../images/primaryKeys.png" width="11px" height="12px" preserveAspectRatio="xMinYMin meet" x="13.5" y="-335.2"/>
<text text-anchor="start" x="35.5" y="-325.3" font-family="Helvetica,sans-Serif" font-size="11.00" fill="#000000">id</text>
<polygon fill="none" stroke="#000000" points="8.5,-296.2 8.5,-318.2 93.5,-318.2 93.5,-296.2 8.5,-296.2"/>
<text text-anchor="start" x="35.5" y="-303.3" font-family="Helvetica,sans-Serif" font-size="11.00" fill="#000000">title</text>
<polygon fill="none" stroke="#000000" points="8.5,-274.2 8.5,-296.2 93.5,-296.2 93.5,-274.2 8.5,-274.2"/>
<text text-anchor="start" x="35.5" y="-281.3" font-family="Helvetica,sans-Serif" font-size="11.00" fill="#000000">slug</text>
<polygon fill="#ffffff" stroke="transparent" points="8.5,-255.2 8.5,-274.2 24.5,-274.2 24.5,-255.2 8.5,-255.2"/>
<polygon fill="none" stroke="#000000" points="8.5,-255.2 8.5,-274.2 24.5,-274.2 24.5,-255.2 8.5,-255.2"/>
<text text-anchor="start" x="11.5" y="-261.3" font-family="Helvetica,sans-Serif" font-size="11.00" fill="#000000"> &#160;</text>
<polygon fill="#ffffff" stroke="transparent" points="24.5,-255.2 24.5,-274.2 70.5,-274.2 70.5,-255.2 24.5,-255.2"/>
<polygon fill="none" stroke="#000000" points="24.5,-255.2 24.5,-274.2 70.5,-274.2 70.5,-255.2 24.5,-255.2"/>
<text text-anchor="start" x="28.9956" y="-261.3" font-family="Helvetica,sans-Serif" font-size="11.00" fill="#000000">11 rows</text>
<polygon fill="#ffffff" stroke="transparent" points="70.5,-255.2 70.5,-274.2 93.5,-274.2 93.5,-255.2 70.5,-255.2"/>
<polygon fill="none" stroke="#000000" points="70.5,-255.2 70.5,-274.2 93.5,-274.2 93.5,-255.2 70.5,-255.2"/>
<text text-anchor="start" x="74.9053" y="-261.3" font-family="Helvetica,sans-Serif" font-size="11.00" fill="#000000">1 &gt;</text>
</a>
</g>
</g>
<!-- article&#45;&gt;category -->
<g id="edge1" class="edge">
<title>article:w&#45;&gt;category:e</title>
<path fill="none" stroke="#000000" d="M127.2829,-329.2C116.2886,-329.2 109.1615,-329.2 93.5,-329.2"/>
<polygon fill="#000000" stroke="#000000" points="134,-329.2001 142,-332.8 138,-329.2 142,-329.2 142,-329.2 142,-329.2 138,-329.2 142,-325.6 134,-329.2001 134,-329.2001"/>
<ellipse fill="none" stroke="#000000" cx="130.8" cy="-329.2001" rx="3.2" ry="3.2"/>
</g>
<!-- comment -->
<g id="node3" class="node">
<title>comment</title>
<g id="a_node3"><a xlink:href="../../tables/comment.html" xlink:title="comment" target="_top">
<polygon fill="#ffffff" stroke="transparent" points="285,-157.2 285,-309.2 373,-309.2 373,-157.2 285,-157.2"/>
<polygon fill="#f5f5f5" stroke="transparent" points="285,-286.2 285,-309.2 373,-309.2 373,-286.2 285,-286.2"/>
<polygon fill="none" stroke="#000000" points="285,-286.2 285,-309.2 373,-309.2 373,-286.2 285,-286.2"/>
<text text-anchor="start" x="289.8873" y="-295.3" font-family="Helvetica,sans-Serif" font-weight="bold" font-size="11.00" fill="#000000">comment</text>
<text text-anchor="start" x="338.5219" y="-294.3" font-family="Helvetica,sans-Serif" font-size="11.00" fill="#000000">[table]</text>
<polygon fill="none" stroke="#000000" points="285,-264.2 285,-286.2 373,-286.2 373,-264.2 285,-264.2"/>
<image xlink:href="../../images/primaryKeys.png" width="11px" height="12px" preserveAspectRatio="xMinYMin meet" x="290" y="-281.2"/>
<text text-anchor="start" x="309" y="-271.3" font-family="Helvetica,sans-Serif" font-size="11.00" fill="#000000">id</text>
<polygon fill="#ffffff" stroke="transparent" points="285,-242.2 285,-264.2 373,-264.2 373,-242.2 285,-242.2"/>
<polygon fill="none" stroke="#000000" points="285,-242.2 285,-264.2 373,-264.2 373,-242.2 285,-242.2"/>
<image xlink:href="../../images/foreignKeys.png" width="11px" height="12px" preserveAspectRatio="xMinYMin meet" x="290" y="-259.2"/>
<text text-anchor="start" x="309" y="-249.3" font-family="Helvetica,sans-Serif" font-size="11.00" fill="#000000">article_id</text>
<polygon fill="#ffffff" stroke="transparent" points="285,-220.2 285,-242.2 373,-242.2 373,-220.2 285,-220.2"/>
<polygon fill="none" stroke="#000000" points="285,-220.2 285,-242.2 373,-242.2 373,-220.2 285,-220.2"/>
<image xlink:href="../../images/foreignKeys.png" width="11px" height="12px" preserveAspectRatio="xMinYMin meet" x="290" y="-237.2"/>
<text text-anchor="start" x="309" y="-227.3" font-family="Helvetica,sans-Serif" font-size="11.00" fill="#000000">user_id</text>
<polygon fill="none" stroke="#000000" points="285,-198.2 285,-220.2 373,-220.2 373,-198.2 285,-198.2"/>
<text text-anchor="start" x="309" y="-205.3" font-family="Helvetica,sans-Serif" font-size="11.00" fill="#000000">content</text>
<polygon fill="none" stroke="#000000" points="285,-176.2 285,-198.2 373,-198.2 373,-176.2 285,-176.2"/>
<text text-anchor="start" x="309" y="-183.3" font-family="Helvetica,sans-Serif" font-size="11.00" fill="#000000">created_at</text>
<polygon fill="#ffffff" stroke="transparent" points="285,-157.2 285,-176.2 308,-176.2 308,-157.2 285,-157.2"/>
<polygon fill="none" stroke="#000000" points="285,-157.2 285,-176.2 308,-176.2 308,-157.2 285,-157.2"/>
<text text-anchor="start" x="288" y="-163.3" font-family="Helvetica,sans-Serif" font-size="11.00" fill="#000000">&lt; 2</text>
<polygon fill="#ffffff" stroke="transparent" points="308,-157.2 308,-176.2 359,-176.2 359,-157.2 308,-157.2"/>
<polygon fill="none" stroke="#000000" points="308,-157.2 308,-176.2 359,-176.2 359,-157.2 308,-157.2"/>
<text text-anchor="start" x="311.3807" y="-163.3" font-family="Helvetica,sans-Serif" font-size="11.00" fill="#000000">100 rows</text>
<polygon fill="#ffffff" stroke="transparent" points="359,-157.2 359,-176.2 373,-176.2 373,-157.2 359,-157.2"/>
<polygon fill="none" stroke="#000000" points="359,-157.2 359,-176.2 373,-176.2 373,-157.2 359,-157.2"/>
<text text-anchor="start" x="363.8862" y="-163.3" font-family="Helvetica,sans-Serif" font-size="11.00" fill="#000000"> &#160;</text>
</a>
</g>
</g>
<!-- comment&#45;&gt;article -->
<g id="edge2" class="edge">
<title>comment:w&#45;&gt;article:e</title>
<path fill="none" stroke="#000000" d="M270.9106,-257.4109C246.8847,-276.1688 278.6095,-351.2 236,-351.2"/>
<polygon fill="#000000" stroke="#000000" points="277.335,-255.4909 286.0309,-256.6492 281.1675,-254.3454 285,-253.2 285,-253.2 285,-253.2 281.1675,-254.3454 283.9691,-249.7508 277.335,-255.4909 277.335,-255.4909"/>
<ellipse fill="none" stroke="#000000" cx="274.269" cy="-256.4073" rx="3.2" ry="3.2"/>
</g>
<!-- user -->
<g id="node4" class="node">
<title>user</title>
<g id="a_node4"><a xlink:href="../../tables/user.html" xlink:title="user" target="_top">
<polygon fill="#ffffff" stroke="transparent" points="150.5,-38.2 150.5,-168.2 227.5,-168.2 227.5,-38.2 150.5,-38.2"/>
<polygon fill="#f5f5f5" stroke="transparent" points="151,-145.2 151,-168.2 228,-168.2 228,-145.2 151,-145.2"/>
<polygon fill="none" stroke="#000000" points="151,-145.2 151,-168.2 228,-168.2 228,-145.2 151,-145.2"/>
<text text-anchor="start" x="156" y="-154.3" font-family="Helvetica,sans-Serif" font-weight="bold" font-size="11.00" fill="#000000">user</text>
<text text-anchor="start" x="193.0437" y="-153.3" font-family="Helvetica,sans-Serif" font-size="11.00" fill="#000000">[table]</text>
<polygon fill="none" stroke="#000000" points="151,-123.2 151,-145.2 228,-145.2 228,-123.2 151,-123.2"/>
<image xlink:href="../../images/primaryKeys.png" width="11px" height="12px" preserveAspectRatio="xMinYMin meet" x="156" y="-140.2"/>
<text text-anchor="start" x="171" y="-130.3" font-family="Helvetica,sans-Serif" font-size="11.00" fill="#000000">id</text>
<polygon fill="none" stroke="#000000" points="151,-101.2 151,-123.2 228,-123.2 228,-101.2 151,-101.2"/>
<text text-anchor="start" x="171" y="-108.3" font-family="Helvetica,sans-Serif" font-size="11.00" fill="#000000">username</text>
<polygon fill="none" stroke="#000000" points="151,-79.2 151,-101.2 228,-101.2 228,-79.2 151,-79.2"/>
<text text-anchor="start" x="171" y="-86.3" font-family="Helvetica,sans-Serif" font-size="11.00" fill="#000000">firstname</text>
<polygon fill="none" stroke="#000000" points="151,-57.2 151,-79.2 228,-79.2 228,-57.2 151,-57.2"/>
<text text-anchor="start" x="171" y="-64.3" font-family="Helvetica,sans-Serif" font-size="11.00" fill="#000000">lastname</text>
<polygon fill="#ffffff" stroke="transparent" points="151,-38.2 151,-57.2 163,-57.2 163,-38.2 151,-38.2"/>
<polygon fill="none" stroke="#000000" points="151,-38.2 151,-57.2 163,-57.2 163,-38.2 151,-38.2"/>
<text text-anchor="start" x="153.9431" y="-44.3" font-family="Helvetica,sans-Serif" font-size="11.00" fill="#000000"> &#160;</text>
<polygon fill="#ffffff" stroke="transparent" points="163,-38.2 163,-57.2 207,-57.2 207,-38.2 163,-38.2"/>
<polygon fill="none" stroke="#000000" points="163,-38.2 163,-57.2 207,-57.2 207,-38.2 163,-38.2"/>
<text text-anchor="start" x="165.7478" y="-44.3" font-family="Helvetica,sans-Serif" font-size="11.00" fill="#000000">13 rows</text>
<polygon fill="#ffffff" stroke="transparent" points="207,-38.2 207,-57.2 228,-57.2 228,-38.2 207,-38.2"/>
<polygon fill="none" stroke="#000000" points="207,-38.2 207,-57.2 228,-57.2 228,-38.2 207,-38.2"/>
<text text-anchor="start" x="209.7027" y="-44.3" font-family="Helvetica,sans-Serif" font-size="11.00" fill="#000000">1 &gt;</text>
</a>
</g>
</g>
<!-- comment&#45;&gt;user -->
<g id="edge3" class="edge">
<title>comment:w&#45;&gt;user:e</title>
<path fill="none" stroke="#000000" d="M270.9532,-227.5159C243.799,-209.7977 272.1437,-134.2 228,-134.2"/>
<polygon fill="#000000" stroke="#000000" points="277.2617,-229.1704 284.0867,-234.6822 281.1309,-230.1852 285,-231.2 285,-231.2 285,-231.2 281.1309,-230.1852 285.9133,-227.7178 277.2617,-229.1704 277.2617,-229.1704"/>
<ellipse fill="none" stroke="#000000" cx="274.1664" cy="-228.3586" rx="3.2" ry="3.2"/>
</g>
</g>
</svg>
