<?xml version="1.0" encoding="UTF-8" standalone="no"?>
<!DOCTYPE svg PUBLIC "-//W3C//DTD SVG 1.1//EN"
 "http://www.w3.org/Graphics/SVG/1.1/DTD/svg11.dtd">
<!-- Generated by graphviz version 2.40.1 (20161225.0304)
 -->
<!-- Title: compactRelationshipsDiagram Pages: 1 -->
<svg width="389pt" height="259pt"
 viewBox="0.00 0.00 389.00 259.20" xmlns="http://www.w3.org/2000/svg" xmlns:xlink="http://www.w3.org/1999/xlink">
<g id="graph0" class="graph" transform="scale(1 1) rotate(0) translate(4 255.2)">
<title>compactRelationshipsDiagram</title>
<polygon fill="#ffffff" stroke="transparent" points="-4,4 -4,-255.2 385,-255.2 385,4 -4,4"/>
<text text-anchor="middle" x="72.4936" y="-7.3" font-family="Helvetica,sans-Serif" font-size="11.00" fill="#000000">Generated by SchemaSpy</text>
<!-- article -->
<g id="node1" class="node">
<title>article</title>
<g id="a_node1"><a xlink:href="../../tables/article.html" xlink:title="article" target="_top">
<polygon fill="#ffffff" stroke="transparent" points="142,-142.2 142,-247.2 236,-247.2 236,-142.2 142,-142.2"/>
<polygon fill="#f5f5f5" stroke="transparent" points="142,-223.7 142,-246.7 236,-246.7 236,-223.7 142,-223.7"/>
<polygon fill="none" stroke="#000000" points="142,-223.7 142,-246.7 236,-246.7 236,-223.7 142,-223.7"/>
<text text-anchor="start" x="147" y="-232.8" font-family="Helvetica,sans-Serif" font-weight="bold" font-size="11.00" fill="#000000">article</text>
<text text-anchor="start" x="201.0437" y="-231.8" font-family="Helvetica,sans-Serif" font-size="11.00" fill="#000000">[table]</text>
<polygon fill="none" stroke="#000000" points="142,-201.7 142,-223.7 236,-223.7 236,-201.7 142,-201.7"/>
<image xlink:href="../../images/primaryKeys.png" width="11px" height="12px" preserveAspectRatio="xMinYMin meet" x="147" y="-218.7"/>
<text text-anchor="start" x="162" y="-208.8" font-family="Helvetica,sans-Serif" font-size="11.00" fill="#000000">id</text>
<polygon fill="#ffffff" stroke="transparent" points="142,-179.7 142,-201.7 236,-201.7 236,-179.7 142,-179.7"/>
<polygon fill="none" stroke="#000000" points="142,-179.7 142,-201.7 236,-201.7 236,-179.7 142,-179.7"/>
<image xlink:href="../../images/foreignKeys.png" width="11px" height="12px" preserveAspectRatio="xMinYMin meet" x="147" y="-196.7"/>
<text text-anchor="start" x="162" y="-186.8" font-family="Helvetica,sans-Serif" font-size="11.00" fill="#000000">category_id</text>
<polygon fill="none" stroke="#000000" points="142,-160.7 142,-179.7 236,-179.7 236,-160.7 142,-160.7"/>
<text text-anchor="start" x="145" y="-166.8" font-family="Helvetica,sans-Serif" font-size="11.00" fill="#000000">...</text>
<polygon fill="#ffffff" stroke="transparent" points="142,-141.7 142,-160.7 164,-160.7 164,-141.7 142,-141.7"/>
<polygon fill="none" stroke="#000000" points="142,-141.7 142,-160.7 164,-160.7 164,-141.7 142,-141.7"/>
<text text-anchor="start" x="145" y="-147.8" font-family="Helvetica,sans-Serif" font-size="11.00" fill="#000000">&lt; 1</text>
<polygon fill="#ffffff" stroke="transparent" points="164,-141.7 164,-160.7 214,-160.7 214,-141.7 164,-141.7"/>
<polygon fill="none" stroke="#000000" points="164,-141.7 164,-160.7 214,-160.7 214,-141.7 164,-141.7"/>
<text text-anchor="start" x="166.6904" y="-147.8" font-family="Helvetica,sans-Serif" font-size="11.00" fill="#000000">102 rows</text>
<polygon fill="#ffffff" stroke="transparent" points="214,-141.7 214,-160.7 236,-160.7 236,-141.7 214,-141.7"/>
<polygon fill="none" stroke="#000000" points="214,-141.7 214,-160.7 236,-160.7 236,-141.7 214,-141.7"/>
<text text-anchor="start" x="217.4053" y="-147.8" font-family="Helvetica,sans-Serif" font-size="11.00" fill="#000000">1 &gt;</text>
</a>
</g>
</g>
<!-- category -->
<g id="node2" class="node">
<title>category</title>
<g id="a_node2"><a xlink:href="../../tables/category.html" xlink:title="category" target="_top">
<polygon fill="#ffffff" stroke="transparent" points="8,-142.2 8,-225.2 93,-225.2 93,-142.2 8,-142.2"/>
<polygon fill="#f5f5f5" stroke="transparent" points="8.5,-201.7 8.5,-224.7 93.5,-224.7 93.5,-201.7 8.5,-201.7"/>
<polygon fill="none" stroke="#000000" points="8.5,-201.7 8.5,-224.7 93.5,-224.7 93.5,-201.7 8.5,-201.7"/>
<text text-anchor="start" x="13.4108" y="-210.8" font-family="Helvetica,sans-Serif" font-weight="bold" font-size="11.00" fill="#000000">category</text>
<text text-anchor="start" x="59.0219" y="-209.8" font-family="Helvetica,sans-Serif" font-size="11.00" fill="#000000">[table]</text>
<polygon fill="none" stroke="#000000" points="8.5,-179.7 8.5,-201.7 93.5,-201.7 93.5,-179.7 8.5,-179.7"/>
<image xlink:href="../../images/primaryKeys.png" width="11px" height="12px" preserveAspectRatio="xMinYMin meet" x="13.5" y="-196.7"/>
<text text-anchor="start" x="35.5" y="-186.8" font-family="Helvetica,sans-Serif" font-size="11.00" fill="#000000">id</text>
<polygon fill="none" stroke="#000000" points="8.5,-160.7 8.5,-179.7 93.5,-179.7 93.5,-160.7 8.5,-160.7"/>
<text text-anchor="start" x="11.5" y="-166.8" font-family="Helvetica,sans-Serif" font-size="11.00" fill="#000000">...</text>
<polygon fill="#ffffff" stroke="transparent" points="8.5,-141.7 8.5,-160.7 24.5,-160.7 24.5,-141.7 8.5,-141.7"/>
<polygon fill="none" stroke="#000000" points="8.5,-141.7 8.5,-160.7 24.5,-160.7 24.5,-141.7 8.5,-141.7"/>
<text text-anchor="start" x="11.5" y="-147.8" font-family="Helvetica,sans-Serif" font-size="11.00" fill="#000000"> &#160;</text>
<polygon fill="#ffffff" stroke="transparent" points="24.5,-141.7 24.5,-160.7 70.5,-160.7 70.5,-141.7 24.5,-141.7"/>
<polygon fill="none" stroke="#000000" points="24.5,-141.7 24.5,-160.7 70.5,-160.7 70.5,-141.7 24.5,-141.7"/>
<text text-anchor="start" x="28.9956" y="-147.8" font-family="Helvetica,sans-Serif" font-size="11.00" fill="#000000">11 rows</text>
<polygon fill="#ffffff" stroke="transparent" points="70.5,-141.7 70.5,-160.7 93.5,-160.7 93.5,-141.7 70.5,-141.7"/>
<polygon fill="none" stroke="#000000" points="70.5,-141.7 70.5,-160.7 93.5,-160.7 93.5,-141.7 70.5,-141.7"/>
<text text-anchor="start" x="74.9053" y="-147.8" font-family="Helvetica,sans-Serif" font-size="11.00" fill="#000000">1 &gt;</text>
</a>
</g>
</g>
<!-- article&#45;&gt;category -->
<g id="edge1" class="edge">
<title>article:w&#45;&gt;category:e</title>
<path fill="none" stroke="#000000" d="M127.2829,-190.7C116.2886,-190.7 109.1615,-190.7 93.5,-190.7"/>
<polygon fill="#000000" stroke="#000000" points="134,-190.7001 142,-194.3 138,-190.7 142,-190.7 142,-190.7 142,-190.7 138,-190.7 142,-187.1 134,-190.7001 134,-190.7001"/>
<ellipse fill="none" stroke="#000000" cx="130.8" cy="-190.7001" rx="3.2" ry="3.2"/>
</g>
<!-- comment -->
<g id="node3" class="node">
<title>comment</title>
<g id="a_node3"><a xlink:href="../../tables/comment.html" xlink:title="comment" target="_top">
<polygon fill="#ffffff" stroke="transparent" points="285,-90.2 285,-217.2 373,-217.2 373,-90.2 285,-90.2"/>
<polygon fill="#f5f5f5" stroke="transparent" points="285,-193.7 285,-216.7 373,-216.7 373,-193.7 285,-193.7"/>
<polygon fill="none" stroke="#000000" points="285,-193.7 285,-216.7 373,-216.7 373,-193.7 285,-193.7"/>
<text text-anchor="start" x="289.8873" y="-202.8" font-family="Helvetica,sans-Serif" font-weight="bold" font-size="11.00" fill="#000000">comment</text>
<text text-anchor="start" x="338.5219" y="-201.8" font-family="Helvetica,sans-Serif" font-size="11.00" fill="#000000">[table]</text>
<polygon fill="none" stroke="#000000" points="285,-171.7 285,-193.7 373,-193.7 373,-171.7 285,-171.7"/>
<image xlink:href="../../images/primaryKeys.png" width="11px" height="12px" preserveAspectRatio="xMinYMin meet" x="290" y="-188.7"/>
<text text-anchor="start" x="309" y="-178.8" font-family="Helvetica,sans-Serif" font-size="11.00" fill="#000000">id</text>
<polygon fill="#ffffff" stroke="transparent" points="285,-149.7 285,-171.7 373,-171.7 373,-149.7 285,-149.7"/>
<polygon fill="none" stroke="#000000" points="285,-149.7 285,-171.7 373,-171.7 373,-149.7 285,-149.7"/>
<image xlink:href="../../images/foreignKeys.png" width="11px" height="12px" preserveAspectRatio="xMinYMin meet" x="290" y="-166.7"/>
<text text-anchor="start" x="309" y="-156.8" font-family="Helvetica,sans-Serif" font-size="11.00" fill="#000000">article_id</text>
<polygon fill="#ffffff" stroke="transparent" points="285,-127.7 285,-149.7 373,-149.7 373,-127.7 285,-127.7"/>
<polygon fill="none" stroke="#000000" points="285,-127.7 285,-149.7 373,-149.7 373,-127.7 285,-127.7"/>
<image xlink:href="../../images/foreignKeys.png" width="11px" height="12px" preserveAspectRatio="xMinYMin meet" x="290" y="-144.7"/>
<text text-anchor="start" x="309" y="-134.8" font-family="Helvetica,sans-Serif" font-size="11.00" fill="#000000">user_id</text>
<polygon fill="none" stroke="#000000" points="285,-108.7 285,-127.7 373,-127.7 373,-108.7 285,-108.7"/>
<text text-anchor="start" x="288" y="-114.8" font-family="Helvetica,sans-Serif" font-size="11.00" fill="#000000">...</text>
<polygon fill="#ffffff" stroke="transparent" points="285,-89.7 285,-108.7 308,-108.7 308,-89.7 285,-89.7"/>
<polygon fill="none" stroke="#000000" points="285,-89.7 285,-108.7 308,-108.7 308,-89.7 285,-89.7"/>
<text text-anchor="start" x="288" y="-95.8" font-family="Helvetica,sans-Serif" font-size="11.00" fill="#000000">&lt; 2</text>
<polygon fill="#ffffff" stroke="transparent" points="308,-89.7 308,-108.7 359,-108.7 359,-89.7 308,-89.7"/>
<polygon fill="none" stroke="#000000" points="308,-89.7 308,-108.7 359,-108.7 359,-89.7 308,-89.7"/>
<text text-anchor="start" x="311.3807" y="-95.8" font-family="Helvetica,sans-Serif" font-size="11.00" fill="#000000">100 rows</text>
<polygon fill="#ffffff" stroke="transparent" points="359,-89.7 359,-108.7 373,-108.7 373,-89.7 359,-89.7"/>
<polygon fill="none" stroke="#000000" points="359,-89.7 359,-108.7 373,-108.7 373,-89.7 359,-89.7"/>
<text text-anchor="start" x="363.8862" y="-95.8" font-family="Helvetica,sans-Serif" font-size="11.00" fill="#000000"> &#160;</text>
</a>
</g>
</g>
<!-- comment&#45;&gt;article -->
<g id="edge2" class="edge">
<title>comment:w&#45;&gt;article:e</title>
<path fill="none" stroke="#000000" d="M271.4073,-165.4988C257.0597,-178.3719 261.8011,-212.7 236,-212.7"/>
<polygon fill="#000000" stroke="#000000" points="277.4563,-163.3633 286.1985,-164.0947 281.2282,-162.0316 285,-160.7 285,-160.7 285,-160.7 281.2282,-162.0316 283.8015,-157.3053 277.4563,-163.3633 277.4563,-163.3633"/>
<ellipse fill="none" stroke="#000000" cx="274.4388" cy="-164.4286" rx="3.2" ry="3.2"/>
</g>
<!-- user -->
<g id="node4" class="node">
<title>user</title>
<g id="a_node4"><a xlink:href="../../tables/user.html" xlink:title="user" target="_top">
<polygon fill="#ffffff" stroke="transparent" points="150.5,-38.2 150.5,-121.2 227.5,-121.2 227.5,-38.2 150.5,-38.2"/>
<polygon fill="#f5f5f5" stroke="transparent" points="151,-97.7 151,-120.7 228,-120.7 228,-97.7 151,-97.7"/>
<polygon fill="none" stroke="#000000" points="151,-97.7 151,-120.7 228,-120.7 228,-97.7 151,-97.7"/>
<text text-anchor="start" x="156" y="-106.8" font-family="Helvetica,sans-Serif" font-weight="bold" font-size="11.00" fill="#000000">user</text>
<text text-anchor="start" x="193.0437" y="-105.8" font-family="Helvetica,sans-Serif" font-size="11.00" fill="#000000">[table]</text>
<polygon fill="none" stroke="#000000" points="151,-75.7 151,-97.7 228,-97.7 228,-75.7 151,-75.7"/>
<image xlink:href="../../images/primaryKeys.png" width="11px" height="12px" preserveAspectRatio="xMinYMin meet" x="156" y="-92.7"/>
<text text-anchor="start" x="171" y="-82.8" font-family="Helvetica,sans-Serif" font-size="11.00" fill="#000000">id</text>
<polygon fill="none" stroke="#000000" points="151,-56.7 151,-75.7 228,-75.7 228,-56.7 151,-56.7"/>
<text text-anchor="start" x="154" y="-62.8" font-family="Helvetica,sans-Serif" font-size="11.00" fill="#000000">...</text>
<polygon fill="#ffffff" stroke="transparent" points="151,-37.7 151,-56.7 163,-56.7 163,-37.7 151,-37.7"/>
<polygon fill="none" stroke="#000000" points="151,-37.7 151,-56.7 163,-56.7 163,-37.7 151,-37.7"/>
<text text-anchor="start" x="153.9431" y="-43.8" font-family="Helvetica,sans-Serif" font-size="11.00" fill="#000000"> &#160;</text>
<polygon fill="#ffffff" stroke="transparent" points="163,-37.7 163,-56.7 207,-56.7 207,-37.7 163,-37.7"/>
<polygon fill="none" stroke="#000000" points="163,-37.7 163,-56.7 207,-56.7 207,-37.7 163,-37.7"/>
<text text-anchor="start" x="165.7478" y="-43.8" font-family="Helvetica,sans-Serif" font-size="11.00" fill="#000000">13 rows</text>
<polygon fill="#ffffff" stroke="transparent" points="207,-37.7 207,-56.7 228,-56.7 228,-37.7 207,-37.7"/>
<polygon fill="none" stroke="#000000" points="207,-37.7 207,-56.7 228,-56.7 228,-37.7 207,-37.7"/>
<text text-anchor="start" x="209.7027" y="-43.8" font-family="Helvetica,sans-Serif" font-size="11.00" fill="#000000">1 &gt;</text>
</a>
</g>
</g>
<!-- comment&#45;&gt;user -->
<g id="edge3" class="edge">
<title>comment:w&#45;&gt;user:e</title>
<path fill="none" stroke="#000000" d="M270.9182,-134.6196C253.335,-122.3611 256.3976,-86.7 228,-86.7"/>
<polygon fill="#000000" stroke="#000000" points="277.3161,-136.4735 283.9981,-142.1578 281.158,-137.5867 285,-138.7 285,-138.7 285,-138.7 281.158,-137.5867 286.0019,-135.2422 277.3161,-136.4735 277.3161,-136.4735"/>
<ellipse fill="none" stroke="#000000" cx="274.2425" cy="-135.5829" rx="3.2" ry="3.2"/>
</g>
</g>
</svg>
